<?xml version="1.0" standalone="no"?>
<!DOCTYPE svg PUBLIC "-//W3C//DTD SVG 1.1//EN" "http://www.w3.org/Graphics/SVG/1.1/DTD/svg11.dtd" >
<svg xmlns="http://www.w3.org/2000/svg">
<metadata></metadata>
<defs>
<font id="laconicshadow" horiz-adv-x="1126" >
<font-face units-per-em="2048" ascent="1536" descent="-512" />
<missing-glyph horiz-adv-x="450" />
<glyph unicode="&#xfb01;" horiz-adv-x="1290" d="M41 672v80h119v-80h-119zM41 799v184h164v348q0 67 48.5 115.5t115.5 48.5h774v-184h-641v-328h295v-184h-295v-799h-297v799h-164zM205 -47h344v799h248v-80h-168v-799h-424v80zM549 1028v236h641v231h80v-311h-641v-156h-80zM842 0v983h297v-983h-297zM842 -47h342 v1030h80v-1108h-422v78z" />
<glyph unicode="&#xfb02;" horiz-adv-x="1392" d="M41 672v80h119v-80h-119zM41 799v184h164v348q0 67 48.5 115.5t115.5 48.5h405v-184h-272v-328h272v-184h-272v-799h-297v799h-164zM205 -47h344v799h272v231h80v-311h-272v-799h-424v80zM549 1028v236h272v231h80v-311h-272v-156h-80zM950 0v1495h297v-1495h-297z M950 -47h342v1542h80v-1620h-422v78z" />
<glyph unicode="&#xfb03;" horiz-adv-x="2027" d="M41 672v80h119v-80h-119zM41 799v184h164v348q0 67 48.5 115.5t115.5 48.5h409v-184h-276v-328h446v348q0 67 48 115.5t116 48.5h772v-184h-639v-328h293v-184h-293v-799h-297v799h-446v-799h-297v799h-164zM205 -47h344v799h352v-80h-272v-799h-424v80zM549 1028v236 h272v231h80v-311h-272v-156h-80zM948 -47h344v799h246v-80h-166v-799h-424v80zM1292 1028v236h635v231h80v-311h-635v-156h-80zM1585 0v983h297v-983h-297zM1585 -47h342v1030h80v-1108h-422v78z" />
<glyph unicode="&#xfb04;" horiz-adv-x="2109" d="M41 672v80h119v-80h-119zM41 799v184h164v348q0 67 48.5 115.5t115.5 48.5h399v-184h-266v-328h434v348q0 67 48 115.5t116 48.5h401v-184h-268v-328h268v-184h-268v-799h-297v799h-434v-799h-297v799h-164zM205 -47h344v799h342v-80h-262v-799h-424v80zM549 1028v236 h262v231h80v-311h-262v-156h-80zM936 -47h344v799h264v231h80v-311h-264v-799h-424v80zM1280 1028v236h264v231h80v-311h-264v-156h-80zM1667 0v1495h297v-1495h-297zM1667 -47h342v1542h80v-1620h-422v78z" />
<glyph horiz-adv-x="2048" />
<glyph horiz-adv-x="2048" />
<glyph unicode="&#xd;" horiz-adv-x="2048" />
<glyph unicode=" "  horiz-adv-x="450" />
<glyph unicode="&#x09;" horiz-adv-x="450" />
<glyph unicode="&#xa0;" horiz-adv-x="450" />
<glyph unicode="!" horiz-adv-x="567" d="M123 0v287h319v-287h-319zM123 -47h364v334h80v-412h-444v78zM123 332v78h364v901h80v-979h-444zM123 457v854h319v-854h-319z" />
<glyph unicode="&#x22;" horiz-adv-x="880" d="M123 858v78h272v-78h-272zM123 983v512h272v-512h-272zM463 858v78h317v559h80v-637h-397zM463 983v512h272v-512h-272z" />
<glyph unicode="#" horiz-adv-x="1208" d="M82 319v80h115v-80h-115zM82 444v185h162v170h-162v184h162v328h250v-328h176v328h250v-328h163v-184h-163v-170h163v-185h-163v-319h-250v319h-176v-319h-250v319h-162zM82 676v76h115v-76h-115zM244 0v78h295v321h84v-399h-379zM494 629h176v170h-176v-170zM539 676v76 h84v-76h-84zM539 1028v283h84v-283h-84zM670 0v78h295v321h163v230h80v-310h-164v-319h-374zM965 676v76h163v231h80v-307h-243zM965 1028v283h79v-283h-79z" />
<glyph unicode="$" horiz-adv-x="1003" d="M82 901v246q0 67 48 115.5t116 48.5h94v184h270v-184h213v-185h-444v-204h315q68 0 116 -48t48 -116v-266q0 -68 -48 -116t-116 -48h-84v-203h-270v203h-223v184h444v225h-315q-68 0 -116 48.5t-48 115.5zM117 203v78h176v-78h-176zM141 711q52 -27 105 -27h268v-80h-190 q-62 0 -112 27t-71 80zM340 0v78h315v203h39q86 0 147.5 61.5t61.5 149.5v258q0 54 -26 104q106 -48 106 -182v-180q0 -108 -71.5 -190t-176.5 -99v-203h-395zM424 961v118h444v232h80v-310h-446v-40h-78zM655 1356v139h80v-139h-80z" />
<glyph unicode="%" horiz-adv-x="2007" d="M82 901v246q0 67 48 115.5t116 48.5h438q68 0 116 -48.5t48 -115.5v-246q0 -67 -48 -115.5t-116 -48.5h-438q-68 0 -116 48.5t-48 115.5zM158 719q50 -29 102 -29h424q66 0 123 41l-62 -119h-405q-57 0 -106 29.5t-76 77.5zM379 922h172v204h-172v-204zM424 967v112h80 v-112h-80zM426 -125l41 78h385l233 457v-172l-186 -363h-473zM481 0l678 1311h340l-676 -1311h-342zM866 1251q49 -29 78 -77.5t29 -106.5v-16l-80 -152v248q0 52 -27 104zM1139 164v246q0 68 45 115.5t112 47.5h439q67 0 115 -47.5t48 -115.5v-246q0 -68 -48 -116t-115 -48 h-439q-67 0 -112 48t-45 116zM1174 580l376 731h90l-358 -693q-61 -3 -108 -38zM1198 -18q50 -29 98 -29h422q88 0 149.5 61.5t61.5 149.5v246q0 56 -28 104q48 -28 77 -76.5t29 -107.5v-170q0 -120 -82 -202.5t-201 -82.5h-350q-113 0 -176 107zM1430 184h172v205h-172 v-205zM1475 229v113h81v-113h-81z" />
<glyph unicode="&#x26;" horiz-adv-x="1454" d="M82 328v164q0 136 95.5 231.5t232.5 95.5h147v328q0 67 48.5 115.5t115.5 48.5h438q67 0 115.5 -48.5t48.5 -115.5v-348q0 -67 -48.5 -115.5t-115.5 -48.5h-307v-451h57q52 0 87.5 41t35.5 103v84h297v-84q0 -136 -95.5 -232t-232.5 -96h-149v-246h-295v246h-147 q-136 0 -232 96t-96 232zM195 27q99 -74 221 -74h94v-78h-14q-156 0 -265 109q-18 19 -36 43zM379 328q0 -62 35.5 -103t87.5 -41h55v451h-55q-51 0 -87 -41t-36 -102v-164zM432 328v164q0 41 22 68.5t54 27.5h2v-359h-2q-32 0 -54 29t-22 70zM557 -293h340v246h104 q158 0 265 110q108 108 108 265v84h80v-84q0 -189 -133 -322q-63 -63 -146 -97t-174 -34h-24v-246h-420v78zM852 819h174v307h-174v-307zM897 229v359h260q86 0 147.5 61.5t61.5 149.5v348q0 52 -27 104q49 -29 78 -77.5t29 -106.5v-268q0 -118 -84 -205q-87 -84 -205 -84 h-180v-229q-23 -52 -68 -52h-12zM897 864v215h80v-215h-80z" />
<glyph unicode="'" horiz-adv-x="538" d="M123 858v78h315v559h80v-637h-395zM123 983v512h270v-512h-270z" />
<glyph unicode="(" horiz-adv-x="757" d="M123 -82v1249q0 135 96.5 231.5t231.5 96.5h182v-184h-58q-54 0 -91.5 -38t-37.5 -93v-1274q0 -55 37.5 -93t91.5 -38h58v-185h-182q-135 0 -231.5 96.5t-96.5 231.5zM229 -383q100 -74 222 -74h227v232h80v-310h-230q-90 0 -168.5 40.5t-130.5 111.5zM492 -94v1274 q0 35 24 59.5t59 24.5h103v231h80v-309h-156q-31 0 -31 -29v-1337q-34 2 -56.5 26.5t-22.5 59.5z" />
<glyph unicode=")" horiz-adv-x="696" d="M61 -225h58q54 0 91.5 38t37.5 93v1274q0 55 -37.5 93t-91.5 38h-58v184h183q135 0 231 -96.5t96 -231.5v-1249q0 -135 -96 -231.5t-231 -96.5h-183v185zM61 -457h183q154 0 263 110t109 265v1249q0 126 -71 222q70 -52 110.5 -131t40.5 -171v-1169q0 -188 -132.5 -320.5 t-319.5 -132.5h-183v78zM61 1186v78h58q34 0 57.5 -22t24.5 -56h-4h-136z" />
<glyph unicode="*" horiz-adv-x="860" d="M63 1071l146 86l-146 82l101 172l145 -86v170h197v-170l143 86l101 -172l-146 -82l146 -86l-101 -172l-143 86v-168h-197v168l-145 -86zM309 692v78h244v133l78 -47v-164h-322zM553 1407v88h78v-41zM690 874l101 175l67 -39l-100 -174q-35 20 -68 38zM692 1432l70 38 l160 -278l-144 -82l-80 45l115 66z" />
<glyph unicode="+" horiz-adv-x="1064" d="M123 299v78h233v-78h-233zM123 424v256h280v303h259v-303h278v-256h-278v-299h-259v299h-280zM403 0v78h304v299h278v303h80v-381h-279v-299h-383zM707 725v258h79v-258h-79z" />
<glyph unicode="," horiz-adv-x="614" d="M-39 -535l25 78h354l231 744h84l-256 -822h-438zM0 -410l219 697h305l-217 -697h-307z" />
<glyph unicode="-" horiz-adv-x="716" d="M102 346v78h535v252h80v-330h-615zM102 471v205h490v-205h-490z" />
<glyph unicode="." horiz-adv-x="614" d="M143 0v287h326v-287h-326zM143 -47h371v334h80v-412h-451v78z" />
<glyph unicode="/" horiz-adv-x="1105" d="M6 -125l41 78h367l698 1358h90l-741 -1436h-455zM66 0l677 1311h318l-676 -1311h-319z" />
<glyph unicode="0" horiz-adv-x="1228" d="M123 328v655q0 135 96.5 231.5t231.5 96.5h325q136 0 232 -96.5t96 -231.5v-655q0 -136 -96 -232t-232 -96h-325q-135 0 -231.5 96t-96.5 232zM229 27q99 -74 222 -74h325q154 0 264.5 110t110.5 265v655q0 122 -74 221q76 -51 114 -130t38 -171v-586q0 -190 -136.5 -316 t-328.5 -126h-234q-96 0 -178 38.5t-123 113.5zM444 334q0 -64 37.5 -107t91.5 -43h80q55 0 93 43t38 107v641q0 64 -38.5 107.5t-92.5 43.5h-80q-54 0 -91.5 -43.5t-37.5 -107.5v-641zM492 334v641q0 44 23.5 74t57.5 30h80q30 0 53 -22t31 -56h-139q-29 0 -29 -34v-738 q-33 1 -55 31.5t-22 73.5z" />
<glyph unicode="1" horiz-adv-x="675" d="M47 1001v78h117v-78h-117zM47 1126v185h483v-1311h-319v1126h-164zM211 -47h364v1358h80v-1436h-444v78z" />
<glyph unicode="2" horiz-adv-x="1146" d="M123 0v438q0 136 95.5 232t232.5 96h100q55 0 93 42.5t38 106.5v60q0 64 -38.5 107.5t-92.5 43.5h-389v185h512q136 0 231.5 -96.5t95.5 -231.5v-78q0 -137 -95.5 -232t-231.5 -95h-103q-55 0 -92 -41t-37 -105v-246h519v-186h-838zM123 -47h883v233h79v-311h-962v78z M162 1001v78h389q29 0 51.5 -22t30.5 -56h-4h-467zM485 231v201q0 43 24.5 70.5t61.5 27.5h103q154 0 263.5 110.5t109.5 264.5v78q0 124 -72 221q21 -15 43 -37q108 -108 108 -264q0 -183 -134 -318.5t-318 -131.5h-80q-17 0 -23 -6.5t-6 -24.5v-191h-80z" />
<glyph unicode="3" horiz-adv-x="1064" d="M102 0v184h387q54 0 91.5 44t37.5 108v151q0 64 -37.5 108t-91.5 44h-387v180h422v307h-422v185h560q67 0 115 -48t48 -116v-420q54 -47 84.5 -111.5t30.5 -136.5v-151q0 -135 -96.5 -231.5t-231.5 -96.5h-510zM102 -47h510q154 0 263.5 110t109.5 265v151 q0 157 -115 269v399q0 54 -26 104q48 -28 77 -76.5t29 -107.5v-297q115 -128 115 -291v-151q0 -187 -133.5 -320t-321.5 -133h-508v78zM102 514v78h387q29 0 50.5 -22t29.5 -56h-2h-465zM102 1001v78h375v-78h-375z" />
<glyph unicode="4" horiz-adv-x="1351" d="M-35 182l41 78h690v-78h-731zM20 307l521 1004h344l-424 -819h282v327h320v-327h164v-185h-164v-307h-320v307h-723zM537 537l159 311v-172l-71 -139h-88zM707 864l229 447h90l-231 -447h-88zM743 -47h365v307h164v232h80v-310h-164v-307h-445v78zM1108 537v282h80v-282 h-80z" />
<glyph unicode="5" horiz-adv-x="1085" d="M102 0v184h408q55 0 93 43t38 107v149q0 64 -38.5 108t-92.5 44h-408v676h807v-185h-489v-307h213q136 0 232 -96t96 -231v-164q0 -136 -95.5 -232t-232.5 -96h-531zM102 -47h531q156 0 266 110q109 109 109 265v164q0 122 -74 221q151 -95 151 -301v-84 q0 -188 -131 -322q-134 -131 -319 -131h-533v78zM102 510v78h408q30 0 53 -22t29 -56h-2h-488zM467 864v215h489v232h78v-310h-489v-137h-78z" />
<glyph unicode="6" horiz-adv-x="1208" d="M102 328v655q0 135 96.5 231.5t231.5 96.5h578v-185h-455q-54 0 -91.5 -43.5t-37.5 -107.5v-158h330q136 0 231.5 -96.5t95.5 -231.5v-161q0 -137 -95.5 -232.5t-231.5 -95.5h-324q-135 0 -231.5 96t-96.5 232zM209 27q99 -74 221 -74h324q154 0 264 110t110 265v161 q0 124 -73 222q151 -96 151 -289v-94q4 -186 -131 -319.5t-321 -133.5h-262q-96 0 -172 37.5t-111 114.5zM424 334q0 -64 37.5 -107t91.5 -43h78q55 0 93 43t38 107v147q0 64 -38.5 108t-92.5 44h-207v-299zM471 334v252h160q30 0 53 -22t29 -56h-2h-162v-277 q-34 1 -56 30.5t-22 72.5zM471 862v113q0 44 24 74t58 30h502v232h78v-310h-553q-17 0 -24 -7.5t-7 -24.5v-107h-78z" />
<glyph unicode="7" horiz-adv-x="1269" d="M82 1001v78h594l-41 -78h-553zM82 1126v185h1108l-676 -1311h-344l580 1126h-668zM113 -125l41 78h389l700 1358h88l-739 -1436h-479z" />
<glyph unicode="8" horiz-adv-x="1208" d="M102 328v164q0 116 74 206v449q0 67 48 115.5t116 48.5h508q68 0 116 -48.5t48 -115.5v-449q73 -92 73 -206v-164q0 -135 -96 -231.5t-231 -96.5h-328q-135 0 -231.5 96.5t-96.5 231.5zM209 27q100 -74 221 -74h328q155 0 263.5 109.5t108.5 265.5v164q0 123 -73 221v434 q0 57 -27 104q49 -29 78 -77.5t29 -106.5v-340q73 -112 73 -235v-164q0 -188 -132.5 -320.5t-319.5 -132.5h-250q-90 0 -168.5 40.5t-130.5 111.5zM424 336q0 -64 37.5 -108t91.5 -44h82q54 0 91.5 44t37.5 108v153q0 64 -37.5 108t-91.5 44h-82q-54 0 -91.5 -44t-37.5 -108 v-153zM469 336v153q0 44 24.5 74.5t59.5 30.5h82q29 0 51.5 -22t28.5 -56h-2h-123q-23 0 -32 -9.5t-9 -31.5v-244q-34 1 -57 31.5t-23 73.5zM477 819h234v307h-234v-307zM522 864v215h142v-78h-62v-137h-80z" />
<glyph unicode="9" horiz-adv-x="1208" d="M102 821v162q0 137 96 232.5t232 95.5h326q135 0 231 -96t96 -232v-655q0 -135 -96 -231.5t-231 -96.5h-580v184h457q54 0 91.5 44t37.5 108v158h-332q-136 0 -232 96t-96 231zM176 -47h580q154 0 263 110t109 265v655q0 126 -71 221q21 -15 41 -35q110 -110 110 -266 v-575q0 -188 -132.5 -320.5t-319.5 -132.5h-580v78zM207 520q99 -74 223 -74h285v-77h-207q-157 0 -264 110q-7 6 -37 41zM422 829q0 -64 38.5 -107.5t92.5 -43.5h209v299q0 64 -37.5 106.5t-91.5 42.5h-80q-55 0 -93 -42.5t-38 -106.5v-148zM467 829v148q0 43 24.5 72.5 t61.5 29.5h80q29 0 51.5 -21.5t28.5 -56.5h-127q-22 0 -30.5 -10t-8.5 -33v-233q-34 2 -57 31.5t-23 72.5z" />
<glyph unicode=":" horiz-adv-x="655" d="M164 0v78h371v334h79v-412h-450zM164 125v287h325v-287h-325zM164 492v77h371v334h79v-411h-450zM164 616v287h325v-287h-325z" />
<glyph unicode=";" horiz-adv-x="655" d="M-45 -246l209 656h305l-207 -656h-307zM-45 -371l25 78h317l221 703h84l-246 -781h-401zM162 492v77h373v334h79v-411h-452zM162 616v287h327v-287h-327z" />
<glyph unicode="&#x3c;" horiz-adv-x="942" d="M0 653l666 666l174 -182l-475 -484l475 -481l-174 -184zM428 653l477 484l58 -56l-478 -483zM666 -78l237 250l58 -55l-238 -252z" />
<glyph unicode="=" horiz-adv-x="1085" d="M123 174v78h862v303h80v-381h-942zM123 299v256h817v-256h-817zM123 602v78h862v303h80v-381h-942zM123 727v256h817v-256h-817z" />
<glyph unicode="&#x3e;" horiz-adv-x="1024" d="M102 172l478 481l-478 484l174 182l668 -666l-668 -665zM276 -76l732 729l57 -57l-731 -729z" />
<glyph unicode="?" horiz-adv-x="942" d="M123 1001v78h340v-78h-340zM123 1126v185h551q68 0 116 -48.5t48 -115.5v-350q0 -67 -48 -114.5t-116 -47.5h-144v-176h-325v196q0 68 47.5 116t114.5 48h143v307h-387zM205 0v287h325v-287h-325zM205 -47h370v334h80v-412h-450v78zM205 334v80h370v174h99 q86 0 147.5 61.5t61.5 147.5v350q0 52 -27 104q49 -29 78 -77.5t29 -106.5v-270q0 -118 -85.5 -202.5t-205.5 -84.5h-17v-176h-450z" />
<glyph unicode="@" horiz-adv-x="1904" d="M102 328v491q0 134 66 247t179 179t247 66h838q135 0 231 -96t96 -232v-573q0 -68 -48.5 -116t-115.5 -48h-860q-67 0 -115.5 48t-48.5 116v327q0 67 48.5 115.5t115.5 48.5h563v-471h175v553q0 70 -49 117t-117 47h-590q-137 0 -232.5 -95t-95.5 -233v-489 q0 -138 95.5 -234t232.5 -96h1040v-164h-1163q-100 0 -191.5 39t-157 105.5t-104.5 157t-39 190.5zM256 -90q146 -121 338 -121h1208v211h80v-289h-1216q-131 0 -243.5 52t-166.5 147zM434 330v489q0 118 82 199.5t201 81.5h590q39 0 69.5 -21t42.5 -57h-702 q-86 0 -144.5 -59t-58.5 -144v-614q0 -45 12 -88l-10 12q-82 85 -82 201zM633 227q48 -28 102 -28h860q86 0 147.5 61.5t61.5 149.5v573q0 126 -71 221q73 -40 112 -120.5t39 -174.5v-499q0 -120 -84.5 -204.5t-204.5 -84.5h-780q-58 0 -106.5 29t-75.5 77zM817 430h215v287 h-215v-287zM864 475v195h123v-78h-45v-117h-78zM1346 475v426h79v-426h-79z" />
<glyph unicode="A" horiz-adv-x="1228" d="M143 0v983q0 136 96.5 232t231.5 96h285q135 0 231 -96t96 -232v-983h-321v471h-297v-471h-322zM143 -47h367v471h205v-78h-125v-471h-447v78zM465 655h297v320q0 70 -34.5 110.5t-94.5 40.5h-39q-60 0 -94.5 -41t-34.5 -110v-320zM510 700v275q0 104 84 104h39 q37 0 59 -22q18 -26 21 -56h-74q-27 0 -38 -13.5t-11 -43.5v-244h-80zM762 -47h366v1030q0 129 -73 223q21 -15 41 -35q112 -112 112 -266v-1030h-446v78z" />
<glyph unicode="B" horiz-adv-x="1249" d="M143 0v1311h703q68 0 116 -48.5t48 -115.5v-430q53 -47 83.5 -111.5t30.5 -136.5v-141q0 -135 -96 -231.5t-231 -96.5h-654zM143 -47h654q155 0 263.5 109.5t108.5 265.5v141q0 157 -114 268v410q0 59 -27 102q49 -27 78 -75t29 -107v-301q114 -126 114 -303v-139 q0 -116 -54.5 -218t-159 -166.5t-234.5 -64.5h-658v78zM465 184h209q54 0 91.5 44t37.5 108v141q0 64 -37.5 108t-91.5 44h-209v-445zM465 809h244v317h-244v-317zM510 229v353h164q29 0 51.5 -22t28.5 -56h-2h-162v-275h-80zM510 854v225h152v-78h-72v-147h-80z" />
<glyph unicode="C" horiz-adv-x="1187" d="M123 492v491q0 136 96.5 232t231.5 96h374q98 0 168 -70t70 -168v-172h-322v225h-168q-54 0 -91.5 -43.5t-37.5 -107.5v-483q0 -129 84.5 -218.5t206.5 -89.5h328v-184h-449q-133 0 -246 66t-179 179.5t-66 246.5zM276 74q146 -121 338 -121h494v231h80v-309h-496 q-123 0 -236 52t-180 147zM489 492v483q0 44 24.5 74t59.5 30h121v-78h-88q-37 0 -37 -36v-551q0 -83 41 -148q-57 37 -89 97t-32 129zM741 776v78h367v219q0 90 -47 158q58 -39 92.5 -101.5t34.5 -134.5v-219h-447z" />
<glyph unicode="D" horiz-adv-x="1249" d="M143 0v1311h490q133 0 246 -66t179 -179.5t66 -246.5v-327q0 -134 -66 -247t-179 -179t-246 -66h-490zM143 -45h490q221 0 378.5 157.5t157.5 379.5v327q0 190 -120 338q98 -71 149 -181.5t51 -234.5v-258q0 -166 -81 -306t-221.5 -221t-307.5 -81h-496v80zM463 184h47 q122 0 207.5 89.5t85.5 218.5v327q0 129 -85.5 218t-207.5 89h-47v-942zM508 231q1 425 1 637.5t-1 212.5h2q102 0 174 -75q12 -14 31 -41q-56 36 -127 36v-757q-41 -13 -78 -13h-2z" />
<glyph unicode="E" horiz-adv-x="1064" d="M143 164v1147h777v-185h-455v-348h455v-184h-455v-410h455v-184h-613q-67 0 -115.5 48t-48.5 116zM203 -18q50 -29 104 -29h658v231h79v-309h-659q-57 0 -105 29t-77 78zM510 229v318h455v231h79v-309h-454v-240h-80zM510 823v256h455v232h79v-310h-454v-178h-80z" />
<glyph unicode="F" horiz-adv-x="1064" d="M143 0v1311h777v-185h-455v-348h455v-184h-455v-594h-322zM143 -47h367v594h455v231h79v-309h-454v-594h-447v78zM510 823v256h455v232h79v-310h-454v-178h-80z" />
<glyph unicode="G" horiz-adv-x="1208" d="M123 328v491q0 133 66 246.5t179 179.5t246 66h449v-185h-326q-122 0 -207.5 -89t-85.5 -218v-483q0 -64 37.5 -108t91.5 -44h168v471h322v-655h-612q-135 0 -231.5 96t-96.5 232zM227 27q104 -74 224 -74h657v702h80v-780h-674q-93 0 -162.5 33.5t-124.5 118.5zM489 336 v483q0 103 71.5 181.5t176.5 78.5h371v232h80v-310h-451q-70 0 -119 -52.5t-49 -125.5v-592q-34 1 -57 31.5t-23 73.5z" />
<glyph unicode="H" horiz-adv-x="1228" d="M143 0v1311h322v-533h297v533h321v-1311h-321v594h-297v-594h-322zM143 -47h367v594h205v-78h-125v-594h-447v78zM510 823v488h80v-488h-80zM762 -47h366v1358h80v-1436h-446v78z" />
<glyph unicode="I" horiz-adv-x="614" d="M145 0v1311h322v-1311h-322zM145 -47h367v1358h80v-1436h-447v78z" />
<glyph unicode="J" horiz-adv-x="778" d="M82 0v184h98q54 0 91.5 38t37.5 93v996h324v-983q0 -135 -96.5 -231.5t-231.5 -96.5h-223zM82 -47h223q154 0 263.5 110t109.5 265v983h80v-983q0 -188 -133 -320.5t-320 -132.5h-223v78z" />
<glyph unicode="K" horiz-adv-x="1290" d="M143 0v1311h322v-533h102l281 533h340l-289 -545q99 -31 163 -117t64 -194v-455h-321v440q0 64 -37.5 108t-91.5 44h-211v-592h-322zM143 -47h367v592h166q29 0 51.5 -22t28.5 -56h-2h-164v-592h-447v78zM510 823v488h80v-391l-51 -97h-29zM805 -47h366v502 q0 106 -56.5 195.5t-151.5 135.5l278 525h90l-264 -496q87 -63 135.5 -158t48.5 -202v-580h-446v78z" />
<glyph unicode="L" horiz-adv-x="903" d="M143 0v1311h322v-1127h334v-184h-656zM143 -47h701v231h80v-309h-781v78zM510 229v1082h80v-1082h-80z" />
<glyph unicode="M" horiz-adv-x="1843" d="M143 0v1311h1227q135 0 231.5 -96.5t96.5 -231.5v-983h-322v995q0 64 -37.5 108t-91.5 44h-168v-1147h-321v1147h-293v-1147h-322zM143 -47h367v1147h201v-78h-121v-1147h-447v78zM758 -47h366v1147h123q29 0 51.5 -22t28.5 -56h-2h-121v-1147h-446v78zM1376 -47h367 v1030q0 123 -72 221q71 -52 111.5 -130.5t40.5 -170.5v-1028h-447v78z" />
<glyph unicode="N" horiz-adv-x="1351" d="M143 0v1311h236q55 0 87.5 -19t53.5 -59l365 -731v809h321v-1311h-235q-55 0 -88 19t-54 59l-364 737v-815h-322zM143 -47h369v665l78 -157v-586h-447v78zM508 1311q128 -6 188 -129l144 -291v-197l-262 529q-27 58 -70 88zM870 -27q45 -20 101 -20h282v1358h78v-1436 h-280q-128 0 -181 98z" />
<glyph unicode="O" horiz-adv-x="1249" d="M123 328v655q0 135 96.5 231.5t231.5 96.5h346q136 0 231.5 -96.5t95.5 -231.5v-655q0 -137 -95.5 -232.5t-231.5 -95.5h-346q-135 0 -231.5 96t-96.5 232zM229 27q99 -74 222 -74h346q154 0 264 110t110 265v655q0 123 -73 221q76 -51 113.5 -129.5t37.5 -171.5v-586 q0 -190 -136.5 -316t-328.5 -126h-254q-96 0 -178 38.5t-123 113.5zM444 334q0 -64 37.5 -107t91.5 -43h101q55 0 93 43t38 107v641q0 64 -38.5 107.5t-92.5 43.5h-101q-54 0 -91.5 -43.5t-37.5 -107.5v-641zM492 334v641q0 44 23.5 74t57.5 30h101q30 0 53 -22t31 -56h-160 q-29 0 -29 -34v-738q-33 1 -55 31.5t-22 73.5z" />
<glyph unicode="P" horiz-adv-x="1167" d="M143 0v1311h574q136 0 230.5 -95.5t94.5 -232.5v-184q0 -135 -95.5 -231.5t-231.5 -96.5h-252v-471h-320zM143 -47h367v471h205q156 0 264 111q111 111 111 264v184q0 119 -74 223q151 -96 151 -303v-104q0 -186 -131 -320q-133 -133 -321 -133h-127v-471h-445v78z M463 655h129q54 0 92.5 44t38.5 108v170q0 64 -38 106.5t-93 42.5h-129v-471zM510 700v379h82q30 0 53 -22t31 -56h-88v-301h-78z" />
<glyph unicode="Q" horiz-adv-x="1249" d="M123 328v655q0 135 96.5 231.5t231.5 96.5h346q136 0 231.5 -96.5t95.5 -231.5v-655q0 -137 -95.5 -232.5t-231.5 -95.5h-15v-410h-315v410h-16q-135 0 -231.5 96t-96.5 232zM229 27q84 -63 191 -72v-66q-133 33 -191 138zM444 334q0 -64 37.5 -107t91.5 -43h101 q55 0 93 43t38 107v641q0 64 -38.5 107.5t-92.5 43.5h-101q-54 0 -91.5 -43.5t-37.5 -107.5v-641zM467 -457h362v412q144 12 243 119t99 254v655q0 123 -73 221q76 -51 113.5 -129.5t37.5 -171.5v-586q0 -158 -96 -274t-246 -154v-424h-440v78zM492 334v641q0 44 23.5 74 t57.5 30h101q30 0 53 -22t31 -56h-160q-29 0 -29 -34v-738q-33 1 -55 31.5t-22 73.5z" />
<glyph unicode="R" horiz-adv-x="1249" d="M143 0v1311h703q68 0 116 -48.5t48 -115.5v-461q53 -47 83.5 -111.5t30.5 -136.5v-438h-321v442q0 64 -37.5 108t-91.5 44h-209v-594h-322zM143 -47h367v594h164q29 0 51.5 -22t28.5 -56h-164v-594h-447v78zM465 778h244v348h-244v-348zM510 823v256h152v-78h-72v-178 h-80zM803 -47h366v485q0 158 -114 269v440q0 57 -27 104q107 -55 107 -184v-338q114 -123 114 -287v-567h-446v78z" />
<glyph unicode="S" d="M123 813v260q0 98 69.5 168t167.5 70h621v-185h-539v-360h322q98 0 167.5 -69t69.5 -167v-292q0 -98 -69.5 -168t-167.5 -70h-621v186h537v389h-320q-98 0 -167.5 70t-69.5 168zM143 -47h621q117 0 200 84t83 201v292q0 81 -46 156q62 -34 93.5 -96t31.5 -137v-224 q0 -149 -102.5 -251.5t-253.5 -102.5h-627v78zM203 578q73 -50 157 -50h273v-77h-201q-155 0 -229 127zM487 811v268h539v232h80v-310h-539v-190h-80z" />
<glyph unicode="T" horiz-adv-x="1105" d="M82 1001v78h244v-78h-244zM82 1126v185h899v-185h-287v-1126h-321v1126h-291zM373 -47h366v1126h287v232h80v-310h-287v-1126h-446v78z" />
<glyph unicode="U" horiz-adv-x="1228" d="M143 328v983h322v-977q0 -64 37.5 -107t91.5 -43h37q54 0 91.5 43t37.5 107v977h321v-983q0 -136 -96 -232t-231 -96h-283q-135 0 -231.5 96t-96.5 232zM248 27q104 -74 223 -74h283q152 0 262 110.5t110 264.5v983h80v-994v-15q0 -112 -56 -208q-60 -102 -163 -160.5 t-223 -58.5h-225q-92 0 -170 38.5t-121 113.5zM510 334v977h80v-1080q-34 2 -57 31t-23 72z" />
<glyph unicode="V" horiz-adv-x="1228" d="M143 0v1311h322v-1127q122 0 209.5 90t87.5 218v819h321v-819q0 -134 -65.5 -247t-178 -179t-245.5 -66h-451zM143 -47h451q146 0 269 72.5t194 196.5t71 270v819h80v-819q0 -167 -82 -309t-223.5 -225t-308.5 -83h-451v78zM510 236v1075h80v-1047q-40 -23 -80 -28z" />
<glyph unicode="W" horiz-adv-x="1843" d="M143 328v983h322v-996q0 -64 37.5 -107.5t91.5 -43.5h164v1147h321v-1147h168q54 0 91.5 43.5t37.5 107.5v996h322v-983q0 -135 -96.5 -231.5t-231.5 -96.5h-899q-135 0 -231.5 96.5t-96.5 231.5zM250 27q100 -74 221 -74h899q155 0 265 110t110 265v983h78v-989 q0 -92 -35 -175t-94.5 -142.5t-142.5 -94.5t-175 -35h-835q-96 0 -173.5 38.5t-117.5 113.5zM512 315v996h78v-1100q-34 1 -56 31t-22 73zM1126 209v1102h78v-1102h-78z" />
<glyph unicode="X" horiz-adv-x="1228" d="M143 0v428q0 88 50.5 158t130.5 100q-80 30 -130.5 100t-50.5 158v367h322v-451q0 -36 23 -59t59 -23h133q36 0 59 23t23 59v451h321v-367q0 -88 -50 -158t-130 -100q80 -30 130 -100t50 -158v-428h-321v512q0 36 -23 59t-59 23h-133q-36 0 -59 -23t-23 -59v-512h-322z M143 -47h367v559q0 35 37 35h133q35 0 35 -35v-43h-125v-594h-447v78zM510 860v451h80v-488h-43q-37 0 -37 37zM762 -47h366v475q0 103 -59 186q-27 40 -70 72q43 32 70 72q59 83 59 186v367h80v-367q0 -120 -69 -217q-15 -21 -35 -41q22 -22 35 -43q69 -97 69 -215v-553 h-446v78z" />
<glyph unicode="Y" horiz-adv-x="1187" d="M102 840v471h322v-465q0 -64 37.5 -107t91.5 -43h59q54 0 91.5 43t37.5 107v465h322v-471q0 -133 -94 -229t-228 -99v-512h-319v512q-132 3 -226 99t-94 229zM209 539q71 -54 166 -70v-57q-109 30 -166 127zM422 -47h364v516q136 15 229 124.5t93 246.5v471h80v-471 q0 -146 -91 -269t-231 -161v-535h-444v78zM469 846v465h80v-568q-34 2 -57 31t-23 72z" />
<glyph unicode="Z" horiz-adv-x="1249" d="M-4 -125l45 78h1063v231h80v-309h-1188zM63 0l637 1126h-530v185h997l-641 -1127h533v-184h-996zM170 1001v78h451l-46 -78h-405zM604 229l615 1082h92l-615 -1082h-92z" />
<glyph unicode="[" horiz-adv-x="757" d="M123 -410v1905h530v-184h-209v-1536h209v-185h-530zM123 -457h577v232h78v-310h-655v78zM492 -180v1444h208v231h78v-309h-209v-1366h-77z" />
<glyph unicode="\" horiz-adv-x="1146" d="M45 1311h338l678 -1311h-340zM434 1311h88l744 -1436h-494l-41 78h406z" />
<glyph unicode="]" horiz-adv-x="737" d="M82 -225h209v1536h-209v184h530v-1905h-530v185zM82 -457h575v1952h80v-2030h-655v78zM82 1186v78h162v-78h-162z" />
<glyph unicode="^" horiz-adv-x="962" d="M33 694l51 78h301l94 146l47 -74l-98 -150h-395zM39 819l321 492h236l324 -492h-322l-119 182l-119 -182h-321zM600 772h385l51 -78h-385z" />
<glyph unicode="_" horiz-adv-x="1105" d="M-20 -164h1146v-184h-1146v184z" />
<glyph unicode="`" horiz-adv-x="942" d="M205 1495h201l219 -348h-201z" />
<glyph unicode="a" horiz-adv-x="1105" d="M102 164v266q0 68 48 116t116 48h398v205h-517v184h650q67 0 115.5 -48.5t48.5 -115.5v-819h-695q-68 0 -116 48t-48 116zM147 674v78h469v-78h-469zM162 -18q50 -29 104 -29h740v866q0 58 -27 105q48 -28 77 -77t29 -108v-864h-741q-57 0 -105 29t-77 78zM399 184h265 v226h-265v-226zM444 229v133h172v-77h-92v-56h-80z" />
<glyph unicode="b" d="M123 0v1495h297v-512h254q136 0 231.5 -95.5t95.5 -232.5v-327q0 -137 -95.5 -232.5t-231.5 -95.5h-551zM123 -47h551q154 0 264.5 110t110.5 265v327q0 120 -74 224q151 -95 151 -297v-260q0 -188 -129.5 -317.5t-316.5 -129.5h-557v78zM420 184h162q52 0 87.5 41 t35.5 103v327q0 61 -36 102.5t-87 41.5h-162v-615zM467 229v523h115q29 0 49.5 -22t25.5 -56h-112v-445h-78zM467 1028v467h78v-467h-78z" />
<glyph unicode="c" horiz-adv-x="1044" d="M102 328v327q0 137 96 232.5t232 95.5h326q68 0 116 -48.5t48 -115.5v-164h-297v144h-101q-51 0 -87 -41.5t-36 -102.5v-327q0 -62 35.5 -103t87.5 -41h336v-184h-428q-136 0 -232 96t-96 232zM207 27q99 -74 223 -74h473v231h80v-309h-487q-92 0 -170.5 39.5 t-118.5 112.5zM444 328v327q0 41 23 69t55 28h53v-82h-26q-25 0 -25 -29v-412h-2q-32 0 -55 29t-23 70zM623 530v78h342v211q0 58 -27 105q106 -47 106 -179v-215h-421z" />
<glyph unicode="d" d="M102 328v327q0 137 96 232.5t232 95.5h254v512h297v-1495h-551q-136 0 -232 96t-96 232zM209 27q99 -74 221 -74h598v1542h78v-1620h-617q-190 0 -280 152zM399 328q0 -62 35.5 -103t87.5 -41h162v615h-162q-51 0 -87 -41.5t-36 -102.5v-327zM446 328v327q0 41 22 69 t54 28h117v-78h-84q-31 0 -31 -33v-412h-2q-32 0 -54 29t-22 70z" />
<glyph unicode="e" d="M102 328v327q0 137 96 232.5t232 95.5h244q136 0 231.5 -95.5t95.5 -232.5v-245h-602v-82q0 -62 35.5 -103t87.5 -41h418v-184h-510q-136 0 -232 96t-96 232zM207 27q99 -74 223 -74h555v231h80v-309h-567q-94 0 -170.5 38t-120.5 114zM399 594h306v61q0 61 -36 102.5 t-87 41.5h-60q-51 0 -87 -41.5t-36 -102.5v-61zM444 328v34h603v293q0 123 -72 224q151 -103 151 -293v-301h-602v-56h-2q-32 0 -55 29t-23 70zM444 639v16q0 41 23 69t55 28h60q29 0 49.5 -22t25.5 -56h-96q-19 0 -27 -8t-8 -27h-82z" />
<glyph unicode="f" horiz-adv-x="921" d="M41 672v80h119v-80h-119zM41 799v184h164v348q0 67 48.5 115.5t115.5 48.5h405v-184h-272v-328h272v-184h-272v-799h-297v799h-164zM205 -47h344v799h272v231h80v-311h-272v-799h-424v80zM549 1028v236h272v231h80v-311h-272v-156h-80z" />
<glyph unicode="g" d="M102 328v327q0 137 96 232.5t232 95.5h551v-1229q0 -68 -48.5 -116t-115.5 -48h-594v185h461v225h-254q-136 0 -232 96t-96 232zM207 27q99 -74 223 -74h207v-78h-135q-200 0 -295 152zM223 -457h594q86 0 147.5 61.5t61.5 149.5v1229h80v-1235q0 -120 -81.5 -201.5 t-201.5 -81.5h-600v78zM399 328q0 -61 36 -102.5t87 -41.5h162v615h-162q-52 0 -87.5 -41t-35.5 -103v-327zM444 328v327q0 41 23 69t55 28h115v-78h-76q-20 0 -28.5 -9t-8.5 -32v-404h-2q-32 0 -55 29t-23 70z" />
<glyph unicode="h" horiz-adv-x="1148" d="M123 0v1495h297v-512h256q136 0 232 -95.5t96 -232.5v-655h-297v655q0 61 -36 102.5t-87 41.5h-164v-799h-297zM123 -47h342v799h119q27 0 48 -22t27 -56h-114v-799h-422v78zM465 1028v467h80v-467h-80zM707 -47h342v702q0 123 -72 224q151 -99 151 -291v-713h-421v78z " />
<glyph unicode="i" horiz-adv-x="573" d="M127 0v983h297v-983h-297zM127 -47h342v1030h80v-1108h-422v78zM127 1104v78h342v313h80v-391h-422zM127 1229v266h297v-266h-297z" />
<glyph unicode="j" horiz-adv-x="573" d="M0 -225h127v1208h297v-1229q0 -68 -48 -116t-116 -48h-260v185zM0 -457h260q86 0 147.5 61.5t61.5 149.5v1229h80v-1229q0 -120 -85 -204.5t-204 -84.5h-260v78zM127 1104v78h342v313h80v-391h-422zM127 1229v266h297v-266h-297z" />
<glyph unicode="k" horiz-adv-x="1208" d="M123 0v1495h299v-901h100l244 389h336l-258 -410q95 -36 154 -119.5t59 -187.5v-266h-293v266q0 61 -36 102.5t-87 41.5h-219v-410h-299zM123 -47h344v409h174q29 0 50 -21.5t26 -55.5h-170v-410h-424v78zM467 639v856h80v-776l-49 -80h-31zM764 -47h338v313 q0 104 -51.5 191t-139.5 137l246 389h92l-233 -371q77 -63 121.5 -153.5t44.5 -192.5v-391h-418v78z" />
<glyph unicode="l" horiz-adv-x="573" d="M127 0v1495h297v-1495h-297zM127 -47h342v1542h80v-1620h-422v78z" />
<glyph unicode="m" horiz-adv-x="1699" d="M123 0v983h1104q136 0 231.5 -95.5t95.5 -232.5v-655h-297v655q0 61 -35.5 102.5t-86.5 41.5h-148v-799h-297v799h-270v-799h-297zM123 -47h344v799h178v-78h-100v-799h-422v78zM690 -47h344v799h101q29 0 49.5 -22t25.5 -56h-98v-799h-422v78zM1257 -47h345v702 q0 120 -74 224q85 -49 118 -120t33 -171v-713h-422v78z" />
<glyph unicode="n" horiz-adv-x="1146" d="M123 0v983h551q136 0 231.5 -95.5t95.5 -232.5v-655h-296v655q0 61 -36 102.5t-87 41.5h-162v-799h-297zM123 -47h342v799h117q28 0 48 -22t25 -56h-110v-799h-422v78zM705 -47h342v702q0 123 -72 224q151 -103 151 -291v-713h-421v78z" />
<glyph unicode="o" d="M102 328v327q0 137 96 232.5t232 95.5h244q136 0 231.5 -95.5t95.5 -232.5v-327q0 -137 -95.5 -232.5t-231.5 -95.5h-244q-136 0 -232 96t-96 232zM207 27q99 -74 223 -74h244q157 0 264 110q109 106 109 265v327q0 123 -72 224q80 -49 115.5 -118.5t35.5 -164.5v-268 q0 -188 -131 -322q-134 -131 -321 -131h-185q-92 0 -165.5 38.5t-116.5 113.5zM399 328q0 -62 35.5 -103t87.5 -41h60q52 0 87.5 41t35.5 103v327q0 61 -36 102.5t-87 41.5h-60q-51 0 -87 -41.5t-36 -102.5v-327zM444 328v327q0 41 23 69t55 28h60q29 0 49.5 -22t25.5 -56 h-102q-17 0 -24 -7t-7 -26v-412h-2q-32 0 -55 29t-23 70z" />
<glyph unicode="p" d="M123 -410v1393h551q136 0 231.5 -95.5t95.5 -232.5v-327q0 -137 -95.5 -232.5t-231.5 -95.5h-254v-410h-297zM123 -457h342v410h209q157 0 264 110q109 109 109 265v327q0 123 -72 224q151 -92 151 -293v-258q0 -189 -133 -322q-131 -131 -319 -131h-129v-410h-422v78z M420 184h162q51 0 87 41.5t36 102.5v327q0 62 -35.5 103t-87.5 41h-162v-615zM465 229v523h117q29 0 49.5 -22t25.5 -56h-112v-445h-80z" />
<glyph unicode="q" d="M100 328v327q0 137 96 232.5t232 95.5h225q137 0 232.5 -95.5t95.5 -232.5v-1065h-297v410h-256q-136 0 -232 96t-96 232zM205 27q104 -74 223 -74h209v-78h-162q-197 0 -270 152zM397 328q0 -61 36 -102.5t87 -41.5h164v471q0 62 -35.5 103t-87.5 41h-41 q-52 0 -87.5 -41t-35.5 -103v-327zM442 328v327q0 41 23 69t55 28h41q29 0 50 -22t26 -56h-86q-15 0 -22 -7.5t-7 -25.5v-412h-2q-32 0 -55 29t-23 70zM684 -457h342v1112q0 123 -72 224q86 -39 119 -106t33 -167v-1141h-422v78z" />
<glyph unicode="r" horiz-adv-x="1067" d="M123 0v983h655q68 0 116 -48.5t48 -115.5v-246h-297v226h-225v-799h-297zM123 -47h342v799h133v-78h-53v-799h-422v78zM645 449v77h342v293q0 60 -26 105q48 -28 77 -77t29 -108v-290h-422z" />
<glyph unicode="s" horiz-adv-x="1003" d="M102 549v270q0 67 48 115.5t116 48.5h578v-184h-445v-230h316q68 0 116 -48t48 -115v-242q0 -68 -48.5 -116t-115.5 -48h-578v184h445v201h-316q-68 0 -116 48.5t-48 115.5zM137 -47h578q86 0 147.5 61.5t61.5 149.5v242q0 52 -27 104q107 -48 107 -164v-188 q0 -120 -81.5 -201.5t-201.5 -81.5h-584v78zM162 367q50 -29 104 -29h269v-78h-201q-59 0 -104 27.5t-68 79.5zM444 614v138h445v231h80v-309h-445v-60h-80z" />
<glyph unicode="t" horiz-adv-x="901" d="M61 674v78h117v-78h-117zM61 799v184h164v328h297v-328h254v-184h-254v-615h254v-184h-387q-67 0 -115.5 48t-48.5 116v635h-164zM285 -18q50 -29 104 -29h432v231h80v-309h-434q-57 0 -105 29t-77 78zM567 229v523h254v231h80v-309h-254v-445h-80zM567 1028v283h80v-283 h-80z" />
<glyph unicode="u" d="M102 328v655h297v-655q0 -61 36 -102.5t87 -41.5h39q51 0 87 41.5t36 102.5v655h297v-655q0 -136 -95.5 -232t-232.5 -96h-223q-136 0 -232 96t-96 232zM209 27q99 -74 221 -74h223q154 0 264.5 110.5t110.5 264.5v655h78v-655q0 -121 -60.5 -226.5t-165.5 -167.5 q-99 -59 -212 -59h-15h-143q-154 0 -266 109q-26 30 -35 43zM446 328v655h78v-754h-2q-32 0 -54 29t-22 70z" />
<glyph unicode="v" horiz-adv-x="1146" d="M123 0v983h297v-799h162q51 0 87 41.5t36 102.5v655h296v-655q0 -137 -95.5 -232.5t-231.5 -95.5h-551zM123 -47h551q154 0 263.5 110.5t109.5 264.5v655h79v-655q0 -121 -60 -226.5t-165 -167.5q-99 -59 -212 -59h-15h-551v78zM465 229v754h80v-754h-80z" />
<glyph unicode="w" horiz-adv-x="1689" d="M123 328v655h297v-655q0 -61 36 -102.5t87 -41.5h141v799h297v-799h143q51 0 87 41.5t36 102.5v655h297v-655q0 -137 -95.5 -232.5t-231.5 -95.5h-766q-137 0 -232.5 96t-95.5 232zM227 27q99 -74 224 -74h766q157 0 264 110q108 108 108 265v655h80v-655 q0 -189 -133 -322q-131 -131 -319 -131h-701q-191 0 -289 152zM465 328v655h80v-754h-2q-32 0 -55 29t-23 70zM1026 229v754h80v-754h-80z" />
<glyph unicode="x" horiz-adv-x="1146" d="M123 0v260q0 83 48 149.5t124 94.5q-76 28 -124 95t-48 151v233h297v-309q0 -36 23 -59t59 -23h121q36 0 59 23t23 59v309h296v-233q0 -84 -48 -151t-124 -95q76 -28 124 -94.5t48 -149.5v-260h-296v328q0 36 -23 59t-59 23h-121q-36 0 -59 -23t-23 -59v-328h-297z M123 -47h342v375q0 34 37 34h121q34 0 34 -34v-43h-96q-16 0 -16 -17v-393h-422v78zM465 674v309h80v-346h-43q-37 0 -37 37zM705 -47h342v307q0 100 -58 176q-30 44 -65 68q57 43 90 108t33 138v233h79v-233q0 -136 -92 -246q92 -110 92 -246v-383h-421v78z" />
<glyph unicode="y" horiz-adv-x="1146" d="M123 328v655h297v-655q0 -61 36 -102.5t87 -41.5h162v799h296v-1229q0 -68 -48 -116t-115 -48h-256v185h123v225h-254q-137 0 -232.5 96t-95.5 232zM227 27q99 -74 224 -74h206v-78h-129q-155 0 -264 109q-6 7 -18.5 21.5t-18.5 21.5zM465 328v655h80v-754h-2 q-32 0 -55 29t-23 70zM582 -457h256q86 0 147.5 61.5t61.5 149.5v1229h79v-1229q0 -120 -84 -204.5t-204 -84.5h-256v78z" />
<glyph unicode="z" horiz-adv-x="1187" d="M-39 -125l57 78h1065v231h78v-309h-1200zM45 0l571 799h-497v184h977l-566 -799h506v-184h-991zM119 674v78h407l-57 -78h-350zM618 229l533 754h98l-532 -754h-99z" />
<glyph unicode="{" horiz-adv-x="716" d="M0 553l121 121v493q0 135 95 231.5t230 96.5h123v-184q-54 0 -90.5 -37.5t-36.5 -93.5v-455l-174 -172l174 -174v-473q0 -56 36.5 -93.5t90.5 -37.5v-185h-123q-135 0 -230 96.5t-95 231.5v514zM223 -383q104 -74 223 -74h170v232h80v-310h-172q-90 0 -168.5 40.5 t-132.5 111.5zM334 553l153 154v473q0 35 24.5 59.5t59.5 24.5h45v231h80v-309h-96q-33 0 -33 -35v-477l-178 -176zM487 -94v491l80 -78v-497q-34 2 -57 25.5t-23 58.5z" />
<glyph unicode="|" horiz-adv-x="696" d="M205 -410v1905h284v-1905h-284zM205 -457h330v1952h79v-2030h-409v78z" />
<glyph unicode="}" horiz-adv-x="737" d="M82 -225q54 0 91.5 38t37.5 93v473l174 174l-174 172v455q0 55 -37.5 93t-91.5 38v184h125q135 0 232.5 -96.5t97.5 -231.5v-493l120 -121l-120 -121v-514q0 -135 -97.5 -231.5t-232.5 -96.5h-125v185zM82 -457h125q154 0 264.5 110t110.5 265v496l141 139l55 -55 l-116 -117v-471q0 -187 -129.5 -316t-317.5 -129h-133v78zM82 1186v78q32 0 56.5 -23t27.5 -55h-84zM510 1389q152 -88 152 -281v-494l-80 78v475q0 124 -72 222z" />
<glyph unicode="~" horiz-adv-x="1044" d="M102 346v80h338q79 0 138.5 53t70.5 131h316v230h79v-310h-335q-33 -81 -106.5 -132.5t-162.5 -51.5h-338zM102 471v184h318v21q0 68 48 116t116 48h336v-185h-316v-20q0 -67 -48 -115.5t-116 -48.5h-338z" />
<glyph unicode="&#xa1;" horiz-adv-x="573" d="M123 -328v852h326v-852h-326zM123 -375h371v899h79v-977h-450v78zM123 571v78h371v334h79v-412h-450zM123 696v287h326v-287h-326z" />
<glyph unicode="&#xa2;" horiz-adv-x="942" d="M82 492v163q0 127 84 219.5t209 106.5v166h270v-164h172v-184h-315q-52 0 -87.5 -41t-35.5 -103v-163q0 -62 35.5 -103t87.5 -41h315v-184h-172v-164h-270v164q-125 14 -209 107t-84 221zM186 188q61 -44 142 -63v-51q-94 40 -142 114zM375 -45h315v164h172v229h80v-309 h-172v-164h-395v80zM424 492v163q0 42 22.5 70.5t55.5 28.5h360v229h80v-309h-401q-21 0 -29 -8.5t-8 -32.5v-219v-19h-2q-34 0 -56 28t-22 69zM690 1030v117h80v-117h-80z" />
<glyph unicode="&#xa3;" horiz-adv-x="1024" d="M82 203v78h862v231h80v-309h-942zM82 328v184h39q51 0 87 41t36 102v72h-162v184h162v72q0 137 95.5 232.5t231.5 95.5h248v-185h-155q-51 0 -87 -41t-36 -102v-72h276v-184h-276v-72q0 -72 -33 -143h391v-184h-817zM82 602v78h115v-25q0 -30 -13 -53h-102zM573 557 q13 54 13 98v25h276v231h80v-309h-276q0 -24 -7 -45h-86zM586 956v27q0 41 22.5 68.5t55.5 27.5h200v232h80v-310h-237q-41 0 -41 -45h-80z" />
<glyph unicode="&#xa4;" d="M82 356l168 168v303l-168 168l158 156l166 -168h311l164 168l157 -156l-170 -168v-301l170 -170l-157 -153l-166 168h-309l-166 -168zM240 137l184 187h270l78 -78h-315l-162 -164zM461 578h198v198h-198v-198zM506 623v106h106v-106h-106zM881 137l223 219l55 -57 l-223 -217zM913 545v264l191 186l55 -55l-166 -166v-307z" />
<glyph unicode="&#xa5;" horiz-adv-x="1310" d="M41 1311h328l231 -400l231 400h328l-305 -492h166v-184h-270v-94h270v-185h-270v-356h-297v356h-273v185h273v94h-273v184h168zM180 231v78h226v-78h-226zM422 1311h90l133 -230l-45 -77zM453 -47h342v356h270v510h80v-588h-271v-356h-421v78zM936 864l278 447h95 l-279 -447h-94z" />
<glyph unicode="&#xa6;" horiz-adv-x="532" d="M123 328h287v-738h-287v738zM123 573v738h287v-738h-287z" />
<glyph unicode="&#xa7;" horiz-adv-x="1024" d="M123 0h479v328h-315q-67 0 -115.5 48t-48.5 116v839q0 67 48.5 115.5t115.5 48.5h612v-184h-481v-328h317q67 0 115.5 -48.5t48.5 -115.5v-839q0 -68 -48.5 -116t-115.5 -48h-612v184zM123 -231h612q86 0 147.5 61.5t61.5 149.5v839q0 55 -26 105q50 -26 78 -75t28 -110 v-766q0 -120 -82 -201t-201 -81h-618v78zM197 309q45 -28 102 -28h256v-78h-176q-58 0 -106.5 29t-75.5 77zM418 492h184v327h-184v-327zM477 537v235h78v-235h-78zM477 1028v236h467v231h80v-309h-469v-158h-78z" />
<glyph unicode="&#xa8;" horiz-adv-x="942" d="M225 1141v170h170v-170h-170zM547 1141v170h170v-170h-170z" />
<glyph unicode="&#xa9;" horiz-adv-x="1536" d="M123 492v327q0 134 65 247t177.5 179t246.5 66h287q134 0 247 -66t179 -179t66 -247v-327q0 -100 -39 -190.5t-104.5 -157t-157 -105.5t-191.5 -39h-287q-203 0 -346 144.5t-143 347.5zM274 74q146 -121 338 -121h287q146 0 269.5 72.5t195.5 196.5t72 270v327 q0 195 -119 338q98 -70 148.5 -180.5t50.5 -237.5v-247q0 -125 -49 -239.5t-131.5 -197t-197 -131.5t-239.5 -49h-209q-124 0 -232.5 53t-183.5 146zM324 485q0 -118 87 -199t212 -81h266q124 0 210.5 81t86.5 199v340q0 118 -86.5 198.5t-210.5 80.5h-266 q-125 0 -212 -80.5t-87 -198.5v-340zM469 492v327q0 68 47.5 116t116.5 48h389v-178h-301v-299h301v-178h-389q-67 0 -115.5 48t-48.5 116z" />
<glyph unicode="&#xaa;" horiz-adv-x="819" d="M61 932v182q0 47 34 82t81 35h307v123h-389v141h488q46 0 79 -33t33 -80v-563h-518q-47 0 -81 33t-34 80zM106 788q37 -16 70 -16h563v610q0 38 -14 66q42 -19 68 -58t26 -87v-609h-565q-49 0 -89.5 24t-58.5 70zM274 961h209v129h-209v-129z" />
<glyph unicode="&#xab;" horiz-adv-x="1372" d="M0 586l496 495l170 -182l-306 -313l308 -310l-174 -184zM424 586l278 284l58 -55l-279 -285zM496 25l235 251l57 -55l-235 -254zM625 586l495 495l170 -182l-305 -313l307 -310l-174 -184zM1049 586l278 284l57 -55l-278 -285zM1120 25l236 251l57 -55l-235 -254z" />
<glyph unicode="&#xac;" horiz-adv-x="1064" d="M123 399v256h819v-409h-256v153h-563z" />
<glyph unicode="&#xad;" horiz-adv-x="716" d="M102 346v78h535v252h80v-330h-615zM102 471v205h490v-205h-490z" />
<glyph unicode="&#xae;" horiz-adv-x="1146" d="M115 1090q0 186 131 317t317 131t318.5 -131t132.5 -317q0 -187 -132.5 -319t-318.5 -132t-317 132t-131 319zM256 700q136 -108 307 -108q135 0 249.5 67t181.5 181.5t67 249.5q0 172 -109 307q88 -69 137.5 -169.5t49.5 -215.5q0 -205 -146 -351.5t-350 -146.5 q-114 0 -215.5 48.5t-171.5 137.5zM322 825h149v174h215v-174h152v181q0 39 -25.5 68.5t-62.5 37.5v145q0 45 -32 77t-77 32h-319v-541zM471 1114v137h125v-137h-125z" />
<glyph unicode="&#xaf;" horiz-adv-x="942" d="M225 1141v170h492v-170h-492z" />
<glyph unicode="&#xb0;" horiz-adv-x="737" d="M61 901v246q0 67 48.5 115.5t115.5 48.5h244q69 0 116.5 -48t47.5 -116v-246q0 -68 -47.5 -116t-116.5 -48h-244q-67 0 -115.5 48.5t-48.5 115.5zM121 719q50 -29 104 -29h244q87 0 148 62t61 149v246q0 55 -27 104q107 -52 107 -184v-170q0 -118 -83 -203t-202 -82h-170 q-60 0 -110.5 28.5t-71.5 78.5zM254 930h186v188h-186v-188zM299 975v96h94v-96h-94z" />
<glyph unicode="&#xb1;" horiz-adv-x="1064" d="M123 0v256h819v-256h-819zM123 608v256h280v283h259v-283h280v-256h-280v-280h-259v280h-280z" />
<glyph unicode="&#xb2;" horiz-adv-x="921" d="M82 492v331q0 67 48 115.5t116 48.5h305v158h-451v166h576q68 0 116 -48.5t48 -115.5v-162q0 -67 -48 -115.5t-116 -48.5h-305v-164h438v-165h-727z" />
<glyph unicode="&#xb3;" horiz-adv-x="921" d="M82 492v165h469v164h-469v166h381v158h-381v166h670v-344q40 -20 64 -59t24 -85v-168q0 -67 -48 -115t-116 -48h-594z" />
<glyph unicode="&#xb4;" horiz-adv-x="942" d="M317 1147l220 348h200l-219 -348h-201z" />
<glyph unicode="&#xb6;" horiz-adv-x="1044" d="M82 985v164q0 67 48 115.5t116 48.5h676v-983h-213v819h-148v-819h-213v491h-102q-68 0 -116 48.5t-48 115.5z" />
<glyph unicode="&#xb7;" horiz-adv-x="655" d="M164 346v78h371v334h79v-412h-450zM164 471v287h325v-287h-325z" />
<glyph unicode="&#xb8;" horiz-adv-x="942" d="M266 -240h158v158h170v-164q0 -68 -48 -116t-116 -48h-164v170z" />
<glyph unicode="&#xb9;" horiz-adv-x="552" d="M6 1145v166h465v-819h-291v653h-174z" />
<glyph unicode="&#xba;" horiz-adv-x="819" d="M82 1044v226q0 94 64.5 159.5t158.5 65.5h164q94 0 159.5 -65.5t65.5 -159.5v-226q0 -95 -65.5 -160t-159.5 -65h-164q-94 0 -158.5 65t-64.5 160zM158 815q67 -43 147 -43h164q112 0 193 78q77 77 77 194v226q0 83 -43 147q57 -37 90 -97.5t33 -129.5v-146 q0 -147 -102 -249q-101 -101 -248 -101h-86q-70 0 -132 31.5t-93 89.5zM291 1059q0 -42 25 -70t61 -28h20q36 0 61 28t25 70v196q0 41 -25.5 70t-60.5 29h-20q-35 0 -60.5 -29t-25.5 -70v-196z" />
<glyph unicode="&#xbb;" horiz-adv-x="1392" d="M82 276l307 310l-305 313l170 182l496 -495l-494 -494zM256 27l532 534l58 -57l-533 -533zM707 276l307 310l-305 313l170 182l495 -495l-493 -494zM881 27l532 534l57 -57l-532 -533z" />
<glyph unicode="&#xbc;" horiz-adv-x="1925" d="M0 1145v166h465v-819h-291v653h-174zM301 0l678 1311h338l-676 -1311h-340zM901 150l344 669h295l-258 -504h162v217h289v-217h151v-165h-151v-150h-289v150h-543z" />
<glyph unicode="&#xbd;" horiz-adv-x="1966" d="M0 1145v166h465v-819h-291v653h-174zM301 0l678 1311h338l-676 -1311h-340zM1126 0v332q0 68 48 116t116 48h305v157h-450v166h575q68 0 116 -48.5t48 -115.5v-161q0 -68 -48 -116t-116 -48h-305v-164h438v-166h-727z" />
<glyph unicode="&#xbe;" horiz-adv-x="2211" d="M82 492v165h469v164h-469v166h381v158h-381v166h670v-344q40 -20 64 -59t24 -85v-168q0 -67 -48 -115t-116 -48h-594zM588 0l678 1311h338l-676 -1311h-340zM1188 150l344 669h295l-258 -504h162v217h288v-217h152v-165h-152v-150h-288v150h-543z" />
<glyph unicode="&#xbf;" horiz-adv-x="921" d="M82 -164v350v7q0 14 2 20v6q16 70 76 105l4 4l18 8l19 6q2 0 6 1t6 1q16 4 25 4h8h143v176h326v-196q0 -15 -2 -21q0 -8 -2 -12q0 -2 -1 -6t-1 -6q-11 -28 -13 -31l-6 -10q-15 -28 -41 -47l-22 -13q-3 -4 -17 -8q-10 -4 -30 -8q-8 -2 -27 -2h-143v-307h387v-185h-551 q-45 0 -83.5 23t-60.5 61l-6 11q-12 31 -14 49v14v6zM141 -346q50 -29 105 -29h596v232h80v-310h-598q-57 0 -106 29.5t-77 77.5zM389 571v78h371v334h80v-412h-451zM389 696v287h326v-287h-326zM455 -98v215h98q86 0 146.5 61.5t60.5 149.5v194h80v-194q0 -120 -84 -204.5 t-203 -84.5h-18v-137h-80z" />
<glyph unicode="&#xc0;" horiz-adv-x="1228" d="M143 0v983q0 136 96.5 232t231.5 96h285q135 0 231 -96t96 -232v-983h-321v471h-297v-471h-322zM143 -47h367v471h205v-78h-125v-471h-447v78zM340 1802h201l219 -348h-201zM465 655h297v320q0 70 -34.5 110.5t-94.5 40.5h-39q-60 0 -94.5 -41t-34.5 -110v-320zM510 700 v275q0 104 84 104h39q37 0 59 -22q18 -26 21 -56h-74q-27 0 -38 -13.5t-11 -43.5v-244h-80zM762 -47h366v1030q0 129 -73 223q72 -52 112.5 -132.5t40.5 -168.5v-1030h-446v78z" />
<glyph unicode="&#xc1;" horiz-adv-x="1228" d="M143 0v983q0 136 96.5 232t231.5 96h285q135 0 231 -96t96 -232v-983h-321v471h-297v-471h-322zM143 -47h367v471h205v-78h-125v-471h-447v78zM465 655h297v320q0 70 -34.5 110.5t-94.5 40.5h-39q-60 0 -94.5 -41t-34.5 -110v-320zM510 700v275q0 104 84 104h39 q37 0 59 -22q18 -26 21 -56h-74q-27 0 -38 -13.5t-11 -43.5v-244h-80zM522 1454l219 348h201l-219 -348h-201zM762 -47h366v1030q0 129 -73 223q21 -15 41 -35q112 -112 112 -266v-1030h-446v78z" />
<glyph unicode="&#xc2;" horiz-adv-x="1228" d="M143 0v983q0 136 96.5 232t231.5 96h285q135 0 231 -96t96 -232v-983h-321v471h-297v-471h-322zM143 -47h367v471h205v-78h-125v-471h-447v78zM328 1475l221 348h176l217 -348h-203l-102 165l-107 -165h-202zM465 655h297v320q0 70 -34.5 110.5t-94.5 40.5h-39 q-60 0 -94.5 -41t-34.5 -110v-320zM510 700v275q0 104 84 104h39q37 0 59 -22q18 -26 21 -56h-74q-27 0 -38 -13.5t-11 -43.5v-244h-80zM762 -47h366v1030q0 129 -73 223q21 -15 41 -35q112 -112 112 -266v-1030h-446v78z" />
<glyph unicode="&#xc3;" horiz-adv-x="1228" d="M143 0v983q0 136 96.5 232t231.5 96h285q135 0 231 -96t96 -232v-983h-321v471h-297v-471h-322zM143 -47h367v471h205v-78h-125v-471h-447v78zM266 1614v172h240q71 0 120.5 -50t49.5 -122v-6h246v-170h-246q-70 0 -120 49.5t-50 120.5v6h-240zM465 655h297v320 q0 70 -34.5 110.5t-94.5 40.5h-39q-60 0 -94.5 -41t-34.5 -110v-320zM510 700v275q0 104 84 104h39q37 0 59 -22q18 -26 21 -56h-74q-27 0 -38 -13.5t-11 -43.5v-244h-80zM762 -47h366v1030q0 129 -73 223q69 -47 111 -129.5t42 -171.5v-1030h-446v78z" />
<glyph unicode="&#xc4;" horiz-adv-x="1228" d="M143 0v983q0 136 96.5 232t231.5 96h285q135 0 231 -96t96 -232v-983h-321v471h-297v-471h-322zM143 -47h367v471h205v-78h-125v-471h-447v78zM399 1468v170h170v-170h-170zM465 655h297v320q0 70 -34.5 110.5t-94.5 40.5h-39q-60 0 -94.5 -41t-34.5 -110v-320zM510 700 v275q0 104 84 104h39q37 0 59 -22q18 -26 21 -56h-74q-27 0 -38 -13.5t-11 -43.5v-244h-80zM721 1468v170h170v-170h-170zM762 -47h366v1030q0 129 -73 223q72 -52 112.5 -132.5t40.5 -168.5v-1030h-446v78z" />
<glyph unicode="&#xc5;" horiz-adv-x="1208" d="M123 0v983q0 108 63 193t162 118q-2 4 -2 17v164q0 67 48 115t116 48h164q68 0 116 -48t48 -115v-164v-17q99 -33 162 -118t63 -193v-983h-322v471h-299v-471h-319zM123 -47h364v471h207v-78h-127v-471h-444v78zM442 655h299v320q0 64 -37.5 107.5t-91.5 43.5h-41 q-54 0 -91.5 -43.5t-37.5 -107.5v-320zM487 700v275q0 44 24.5 74t59.5 30h41q29 0 50.5 -22t29.5 -56h-2h-82q-41 0 -41 -43v-258h-80zM508 1309h168v166h-168v-166zM553 1354v73h76v-73h-76zM741 -47h367v1030q0 123 -72 221q74 -49 113 -128t39 -173v-1028h-447v78z M856 1579q49 -29 78 -77.5t29 -106.5v-115q-39 28 -80 45v150q0 52 -27 104z" />
<glyph unicode="&#xc6;" horiz-adv-x="1679" d="M143 0v983q0 136 95.5 232t230.5 96h1061v-185h-432v-348h436v-184h-436v-266q0 -64 37 -104t92 -40h303v-184h-426q-135 0 -231.5 96.5t-96.5 231.5v143h-313v-471h-320zM143 -47h365v471h221v-78h-141v-471h-445v78zM463 655h313v471h-184q-54 0 -91.5 -43.5 t-37.5 -107.5v-320zM508 700v275q0 44 24.5 74t59.5 30h137v-78h-104q-19 0 -28 -8.5t-9 -29.5v-263h-80zM883 27q100 -74 221 -74h471v231h80v-309h-473q-96 0 -177.5 39.5t-121.5 112.5zM1143 328v219h436v231h80v-309h-436v-240q-34 3 -57 31t-23 68zM1143 823v256h432 v232h80v-310h-432v-178h-80z" />
<glyph unicode="&#xc7;" horiz-adv-x="1187" d="M123 492v491q0 136 96.5 232t231.5 96h374q98 0 168 -70t70 -168v-172h-322v225h-168q-54 0 -91.5 -43.5t-37.5 -107.5v-483q0 -129 84.5 -218.5t206.5 -89.5h328v-184h-449q-133 0 -246 66t-179 179.5t-66 246.5zM276 74q146 -121 338 -121h494v231h80v-309h-277v-121 q0 -68 -48 -116t-115 -48h-164v170h157v115h-49q-123 0 -236 52t-180 147zM489 492v483q0 44 24.5 74t59.5 30h121v-78h-88q-37 0 -37 -36v-551q0 -83 41 -148q-57 37 -89 97t-32 129zM741 776v78h367v219q0 90 -47 158q58 -39 92.5 -101.5t34.5 -134.5v-219h-447z" />
<glyph unicode="&#xc8;" horiz-adv-x="1064" d="M143 164v1147h777v-185h-455v-348h455v-184h-455v-410h455v-184h-613q-67 0 -115.5 48t-48.5 116zM203 -18q50 -29 104 -29h658v231h79v-309h-659q-57 0 -105 29t-77 78zM307 1802h201l219 -348h-201zM510 229v318h455v231h79v-309h-454v-240h-80zM510 823v256h455v232 h79v-310h-454v-178h-80z" />
<glyph unicode="&#xc9;" horiz-adv-x="1064" d="M143 164v1147h777v-185h-455v-348h455v-184h-455v-410h455v-184h-613q-67 0 -115.5 48t-48.5 116zM203 -18q50 -29 104 -29h658v231h79v-309h-659q-57 0 -105 29t-77 78zM471 1454l219 348h201l-219 -348h-201zM510 229v318h455v231h79v-309h-454v-240h-80zM510 823v256 h455v232h79v-310h-454v-178h-80z" />
<glyph unicode="&#xca;" horiz-adv-x="1064" d="M143 164v1147h777v-185h-455v-348h455v-184h-455v-410h455v-184h-613q-67 0 -115.5 48t-48.5 116zM203 -18q50 -29 104 -29h658v231h79v-309h-659q-57 0 -105 29t-77 78zM266 1475l221 348h177l217 -348h-203l-103 165l-106 -165h-203zM510 229v318h455v231h79v-309h-454 v-240h-80zM510 823v256h455v232h79v-310h-454v-178h-80z" />
<glyph unicode="&#xcb;" horiz-adv-x="1064" d="M143 164v1147h777v-185h-455v-348h455v-184h-455v-410h455v-184h-613q-67 0 -115.5 48t-48.5 116zM203 -18q50 -29 104 -29h658v231h79v-309h-659q-57 0 -105 29t-77 78zM287 1468v170h170v-170h-170zM510 229v318h455v231h79v-309h-454v-240h-80zM510 823v256h455v232 h79v-310h-454v-178h-80zM608 1468v170h170v-170h-170z" />
<glyph unicode="&#xcc;" horiz-adv-x="614" d="M61 1802h201l219 -348h-200zM145 0v1311h322v-1311h-322zM145 -47h367v1358h80v-1436h-447v78z" />
<glyph unicode="&#xcd;" horiz-adv-x="614" d="M145 0v1311h322v-1311h-322zM145 -47h367v1358h80v-1436h-447v78zM195 1454l219 348h200l-219 -348h-200z" />
<glyph unicode="&#xce;" horiz-adv-x="614" d="M121 1468v170h170v-170h-170zM145 0v1311h322v-1311h-322zM145 -47h367v1358h80v-1436h-447v78zM442 1468v170h170v-170h-170z" />
<glyph unicode="&#xcf;" horiz-adv-x="614" d="M55 1475l221 348h177l217 -348h-203l-102 165l-107 -165h-203zM145 0v1311h322v-1311h-322zM145 -47h367v1358h80v-1436h-447v78z" />
<glyph unicode="&#xd0;" horiz-adv-x="1269" d="M0 573v185h164v553h489q99 0 190.5 -39t157.5 -105t105 -157.5t39 -190.5v-327q0 -100 -39 -191.5t-105.5 -157t-157 -104.5t-190.5 -39h-489v573h-164zM164 -45h489q109 0 208 42.5t171.5 114.5t115 171.5t42.5 208.5v327q0 189 -121 338q98 -71 149.5 -181.5 t51.5 -234.5v-258q0 -125 -48 -237.5t-129.5 -193.5t-195 -129t-238.5 -48h-495v80zM483 184h47q122 0 207.5 89.5t85.5 218.5v327q0 129 -85.5 218t-207.5 89h-47v-368h174v-185h-174v-389zM528 231q2 135 2 297h172v234h78v-311h-172v-207q-41 -13 -78 -13h-2zM528 1081h2 q103 0 175 -75l30 -41q-56 36 -127 36v-198h-78q0 278 -2 278z" />
<glyph unicode="&#xd1;" horiz-adv-x="1351" d="M143 0v1311h236q55 0 87.5 -19t53.5 -59l365 -731v809h321v-1311h-235q-55 0 -88 19t-54 59l-364 737v-815h-322zM143 -47h369v665l78 -157v-586h-447v78zM369 1614v172h239q71 0 120.5 -50t49.5 -122v-6h246v-170h-246q-70 0 -120 49.5t-50 120.5v6h-239zM508 1311 q128 -6 188 -129l144 -291v-197l-262 529q-27 58 -70 88zM870 -27q45 -20 101 -20h282v1358h78v-1436h-280q-128 0 -181 98z" />
<glyph unicode="&#xd2;" horiz-adv-x="1249" d="M123 328v655q0 135 96.5 231.5t231.5 96.5h346q136 0 231.5 -96.5t95.5 -231.5v-655q0 -137 -95.5 -232.5t-231.5 -95.5h-346q-135 0 -231.5 96t-96.5 232zM229 27q99 -74 222 -74h346q154 0 264 110t110 265v655q0 123 -73 221q76 -51 113.5 -129.5t37.5 -171.5v-586 q0 -190 -136.5 -316t-328.5 -126h-254q-96 0 -178 38.5t-123 113.5zM340 1802h201l219 -348h-201zM444 334q0 -64 37.5 -107t91.5 -43h101q55 0 93 43t38 107v641q0 64 -38.5 107.5t-92.5 43.5h-101q-54 0 -91.5 -43.5t-37.5 -107.5v-641zM492 334v641q0 44 23.5 74t57.5 30 h101q30 0 53 -22t31 -56h-160q-29 0 -29 -34v-738q-33 1 -55 31.5t-22 73.5z" />
<glyph unicode="&#xd3;" horiz-adv-x="1249" d="M123 328v655q0 135 96.5 231.5t231.5 96.5h346q136 0 231.5 -96.5t95.5 -231.5v-655q0 -137 -95.5 -232.5t-231.5 -95.5h-346q-135 0 -231.5 96t-96.5 232zM229 27q99 -74 222 -74h346q154 0 264 110t110 265v655q0 123 -73 221q76 -51 113.5 -129.5t37.5 -171.5v-586 q0 -190 -136.5 -316t-328.5 -126h-254q-96 0 -178 38.5t-123 113.5zM444 334q0 -64 37.5 -107t91.5 -43h101q55 0 93 43t38 107v641q0 64 -38.5 107.5t-92.5 43.5h-101q-54 0 -91.5 -43.5t-37.5 -107.5v-641zM492 334v641q0 44 23.5 74t57.5 30h101q30 0 53 -22t31 -56h-160 q-29 0 -29 -34v-738q-33 1 -55 31.5t-22 73.5zM563 1454l219 348h201l-219 -348h-201z" />
<glyph unicode="&#xd4;" horiz-adv-x="1249" d="M123 328v655q0 135 96.5 231.5t231.5 96.5h346q136 0 231.5 -96.5t95.5 -231.5v-655q0 -137 -95.5 -232.5t-231.5 -95.5h-346q-135 0 -231.5 96t-96.5 232zM229 27q99 -74 222 -74h346q154 0 264 110t110 265v655q0 123 -73 221q76 -51 113.5 -129.5t37.5 -171.5v-586 q0 -190 -136.5 -316t-328.5 -126h-254q-96 0 -178 38.5t-123 113.5zM338 1475l221 348h176l217 -348h-202l-103 165l-106 -165h-203zM444 334q0 -64 37.5 -107t91.5 -43h101q55 0 93 43t38 107v641q0 64 -38.5 107.5t-92.5 43.5h-101q-54 0 -91.5 -43.5t-37.5 -107.5v-641z M492 334v641q0 44 23.5 74t57.5 30h101q30 0 53 -22t31 -56h-160q-29 0 -29 -34v-738q-33 1 -55 31.5t-22 73.5z" />
<glyph unicode="&#xd5;" horiz-adv-x="1249" d="M123 328v655q0 135 96.5 231.5t231.5 96.5h346q136 0 231.5 -96.5t95.5 -231.5v-655q0 -137 -95.5 -232.5t-231.5 -95.5h-346q-135 0 -231.5 96t-96.5 232zM229 27q99 -74 222 -74h346q154 0 264 110t110 265v655q0 123 -73 221q76 -51 113.5 -129.5t37.5 -171.5v-586 q0 -190 -136.5 -316t-328.5 -126h-254q-96 0 -178 38.5t-123 113.5zM297 1614v172h240q71 0 120.5 -50t49.5 -122v-6h245v-170h-245q-70 0 -120 49.5t-50 120.5v6h-240zM444 334q0 -64 37.5 -107t91.5 -43h101q55 0 93 43t38 107v641q0 64 -38.5 107.5t-92.5 43.5h-101 q-54 0 -91.5 -43.5t-37.5 -107.5v-641zM492 334v641q0 44 23.5 74t57.5 30h101q30 0 53 -22t31 -56h-160q-29 0 -29 -34v-738q-33 1 -55 31.5t-22 73.5z" />
<glyph unicode="&#xd6;" horiz-adv-x="1249" d="M123 328v655q0 135 96.5 231.5t231.5 96.5h346q136 0 231.5 -96.5t95.5 -231.5v-655q0 -137 -95.5 -232.5t-231.5 -95.5h-346q-135 0 -231.5 96t-96.5 232zM229 27q99 -74 222 -74h346q154 0 264 110t110 265v655q0 123 -73 221q76 -51 113.5 -129.5t37.5 -171.5v-586 q0 -190 -136.5 -316t-328.5 -126h-254q-96 0 -178 38.5t-123 113.5zM399 1468v170h170v-170h-170zM444 334q0 -64 37.5 -107t91.5 -43h101q55 0 93 43t38 107v641q0 64 -38.5 107.5t-92.5 43.5h-101q-54 0 -91.5 -43.5t-37.5 -107.5v-641zM492 334v641q0 44 23.5 74t57.5 30 h101q30 0 53 -22t31 -56h-160q-29 0 -29 -34v-738q-33 1 -55 31.5t-22 73.5zM721 1468v170h170v-170h-170z" />
<glyph unicode="&#xd7;" horiz-adv-x="1024" d="M72 313l254 252l-254 254l180 180l254 -251l254 253l182 -182l-254 -254l254 -254l-182 -180l-252 252l-254 -252zM281 92l227 227l55 -57l-227 -227zM754 565l225 226l57 -56l-225 -225zM760 66l248 245l57 -57l-248 -244z" />
<glyph unicode="&#xd8;" horiz-adv-x="1249" d="M123 47l61 90q-61 83 -61 191v655q0 135 96.5 231.5t231.5 96.5h346q72 0 143 -33l49 74l135 -90l-59 -91q59 -85 59 -188v-655q0 -137 -95.5 -232.5t-231.5 -95.5h-346q-75 0 -142 31l-51 -74zM268 -109q20 25 58 82q65 -20 125 -20h346q156 0 264 108q108 111 108 267 v655q0 102 -51 188q29 38 49 70l64 -43q-13 -17 -25 -35q43 -91 43 -180v-657q0 -190 -133 -320q-131 -131 -319 -131h-346q-41 0 -89 10l-26 -39zM444 530l344 519q-38 77 -114 77h-101q-54 0 -91.5 -43.5t-37.5 -107.5v-445zM461 260q15 -35 45 -55.5t67 -20.5h101 q55 0 93 43t38 107v448zM489 682v293q0 44 24.5 74t59.5 30h101q35 0 59 -30q-3 -3 -7.5 -9.5t-12 -18t-13.5 -20.5h-98q-20 0 -26.5 -7t-6.5 -27v-168q-21 -30 -80 -117zM514 258q5 7 244 371v-144l-168 -256h-17q-36 0 -59 29z" />
<glyph unicode="&#xd9;" horiz-adv-x="1228" d="M143 328v983h322v-977q0 -64 37.5 -107t91.5 -43h37q54 0 91.5 43t37.5 107v977h321v-983q0 -136 -96 -232t-231 -96h-283q-135 0 -231.5 96t-96.5 232zM248 27q104 -74 223 -74h283q152 0 262 110.5t110 264.5v983h80v-994q4 -121 -56 -223.5t-163 -160.5t-223 -58h-225 q-92 0 -170 38.5t-121 113.5zM360 1802h201l219 -348h-200zM510 334v977h80v-1080q-34 2 -57 31t-23 72z" />
<glyph unicode="&#xda;" horiz-adv-x="1228" d="M143 328v983h322v-977q0 -64 37.5 -107t91.5 -43h37q54 0 91.5 43t37.5 107v977h321v-983q0 -136 -96 -232t-231 -96h-283q-135 0 -231.5 96t-96.5 232zM248 27q104 -74 223 -74h283q152 0 262 110.5t110 264.5v983h80v-994q4 -121 -56 -223.5t-163 -160.5t-223 -58h-225 q-92 0 -170 38.5t-121 113.5zM510 334v977h80v-1080q-34 2 -57 31t-23 72zM543 1454l219 348h201l-220 -348h-200z" />
<glyph unicode="&#xdb;" horiz-adv-x="1228" d="M143 328v983h322v-977q0 -64 37.5 -107t91.5 -43h37q54 0 91.5 43t37.5 107v977h321v-983q0 -136 -96 -232t-231 -96h-283q-135 0 -231.5 96t-96.5 232zM248 27q104 -74 223 -74h283q152 0 262 110.5t110 264.5v983h80v-994q4 -121 -56 -223.5t-163 -160.5t-223 -58h-225 q-92 0 -170 38.5t-121 113.5zM328 1475l221 348h176l217 -348h-203l-102 165l-107 -165h-202zM510 334v977h80v-1080q-34 2 -57 31t-23 72z" />
<glyph unicode="&#xdc;" horiz-adv-x="1228" d="M143 328v983h322v-977q0 -64 37.5 -107t91.5 -43h37q54 0 91.5 43t37.5 107v977h321v-983q0 -136 -96 -232t-231 -96h-283q-135 0 -231.5 96t-96.5 232zM248 27q104 -74 223 -74h283q152 0 262 110.5t110 264.5v983h80v-994q4 -121 -56 -223.5t-163 -160.5t-223 -58h-225 q-92 0 -170 38.5t-121 113.5zM399 1468v170h170v-170h-170zM510 334v977h80v-1080q-34 2 -57 31t-23 72zM721 1468v170h170v-170h-170z" />
<glyph unicode="&#xdd;" horiz-adv-x="1187" d="M102 840v471h322v-465q0 -64 37.5 -107t91.5 -43h59q54 0 91.5 43t37.5 107v465h322v-471q0 -133 -94 -229t-228 -99v-512h-319v512q-132 3 -226 99t-94 229zM209 539q71 -54 166 -70v-57q-109 30 -166 127zM422 -47h364v516q136 15 229 124.5t93 246.5v471h80v-471 q0 -146 -91 -269t-231 -161v-535h-444v78zM469 846v465h80v-568q-34 2 -57 31t-23 72zM494 1454l219 348h200l-219 -348h-200z" />
<glyph unicode="&#xde;" horiz-adv-x="1167" d="M123 0v1311h319v-248h273q136 0 231.5 -95.5t95.5 -232.5v-162q0 -135 -95.5 -231t-231.5 -96h-273v-246h-319zM123 -47h364v246h234q153 0 259.5 107.5t106.5 260.5v168q0 123 -71 223q7 -6 21.5 -18t21.5 -18q108 -111 108 -267v-88q0 -120 -59 -224t-162.5 -165 t-224.5 -57h-154v-246h-444v78zM442 430h150q54 0 92.5 44t38.5 108v147q0 64 -38 107t-93 43h-150v-449zM487 475v356h105q31 0 53.5 -21.5t28.5 -55.5h-4h-103v-279h-80zM487 1108v203h80v-203h-80z" />
<glyph unicode="&#xdf;" horiz-adv-x="1290" d="M20 510v78h117v-78h-117zM20 635v184h162v254q0 98 69 168t167 70h346q98 0 167.5 -70t69.5 -168v-213q75 -42 119.5 -118t44.5 -167v-247q0 -137 -95.5 -232.5t-231.5 -95.5h-179v184h37q56 0 114 43t58 101v247q0 61 -36 102.5t-87 41.5h-40v407h-228v-1126h-295v635 h-162zM182 -47h342v1126h135v-78h-57v-1126h-420v78zM659 -47h179q154 0 264 110t110 265v247q0 94 -43.5 175.5t-119.5 134.5v188q0 84 -48 158q58 -39 91.5 -102t33.5 -136v-69q78 -65 121 -155.5t43 -193.5v-247q0 -188 -132.5 -320.5t-319.5 -132.5h-179v78zM705 594v78 h40q29 0 50 -22t26 -56h-116z" />
<glyph unicode="&#xe0;" horiz-adv-x="1105" d="M102 164v266q0 68 48 116t116 48h398v205h-517v184h650q67 0 115.5 -48.5t48.5 -115.5v-819h-695q-68 0 -116 48t-48 116zM147 674v78h469v-78h-469zM162 -18q50 -29 104 -29h740v866q0 58 -27 105q48 -28 77 -77t29 -108v-864h-741q-57 0 -105 29t-77 78zM287 1495h200 l220 -348h-201zM399 184h265v226h-265v-226zM444 229v133h172v-77h-92v-56h-80z" />
<glyph unicode="&#xe1;" horiz-adv-x="1105" d="M102 164v266q0 68 48 116t116 48h398v205h-517v184h650q67 0 115.5 -48.5t48.5 -115.5v-819h-695q-68 0 -116 48t-48 116zM147 674v78h469v-78h-469zM162 -18q50 -29 104 -29h740v866q0 58 -27 105q48 -28 77 -77t29 -108v-864h-741q-57 0 -105 29t-77 78zM399 184h265 v226h-265v-226zM420 1147l219 348h201l-219 -348h-201zM444 229v133h172v-77h-92v-56h-80z" />
<glyph unicode="&#xe2;" horiz-adv-x="1105" d="M102 164v266q0 68 48 116t116 48h398v205h-517v184h650q67 0 115.5 -48.5t48.5 -115.5v-819h-695q-68 0 -116 48t-48 116zM147 674v78h469v-78h-469zM162 -18q50 -29 104 -29h740v866q0 58 -27 105q48 -28 77 -77t29 -108v-864h-741q-57 0 -105 29t-77 78zM266 1147 l221 348h177l217 -348h-203l-103 166l-106 -166h-203zM399 184h265v226h-265v-226zM444 229v133h172v-77h-92v-56h-80z" />
<glyph unicode="&#xe3;" horiz-adv-x="1105" d="M102 164v266q0 68 48 116t116 48h398v205h-517v184h650q67 0 115.5 -48.5t48.5 -115.5v-819h-695q-68 0 -116 48t-48 116zM147 674v78h469v-78h-469zM162 -18q50 -29 104 -29h740v866q0 58 -27 105q48 -28 77 -77t29 -108v-864h-741q-57 0 -105 29t-77 78zM225 1323v172 h240q71 0 120.5 -50t49.5 -122v-6h246v-170h-246q-70 0 -120 49.5t-50 120.5v6h-240zM399 184h265v226h-265v-226zM444 229v133h172v-77h-92v-56h-80z" />
<glyph unicode="&#xe4;" horiz-adv-x="1085" d="M102 164v266q0 68 48 116t116 48h398v205h-517v184h650q67 0 115.5 -48.5t48.5 -115.5v-819h-695q-68 0 -116 48t-48 116zM147 674v78h469v-78h-469zM162 -18q50 -29 104 -29h740v866q0 58 -27 105q48 -28 77 -77t29 -108v-864h-741q-57 0 -105 29t-77 78zM328 1141v170 h170v-170h-170zM399 184h265v226h-265v-226zM444 229v133h172v-77h-92v-56h-80zM649 1141v170h170v-170h-170z" />
<glyph unicode="&#xe5;" horiz-adv-x="1105" d="M102 164v266q0 68 48 116t116 48h398v205h-517v184h650q67 0 115.5 -48.5t48.5 -115.5v-819h-695q-68 0 -116 48t-48 116zM147 674v78h469v-78h-469zM162 -18q50 -29 104 -29h740v866q0 58 -27 105q48 -28 77 -77t29 -108v-864h-741q-57 0 -105 29t-77 78zM328 1311v164 q0 67 48 115t116 48h163q68 0 116 -48t48 -115v-164q0 -67 -48.5 -115.5t-115.5 -48.5h-163q-68 0 -116 48.5t-48 115.5zM399 184h265v226h-265v-226zM444 229v133h172v-77h-92v-56h-80zM489 1309h168v166h-168v-166z" />
<glyph unicode="&#xe6;" horiz-adv-x="1679" d="M102 164v266q0 68 48 116t116 48h404v61q0 64 -34.5 106t-92.5 42h-398v180h494q96 0 178 -53q85 53 180 53h230q136 0 231.5 -95.5t95.5 -232.5v-245h-587v-84q0 -62 35.5 -102t87.5 -40h403v-184h-496q-98 0 -180 51q-79 -51 -178 -51h-373q-68 0 -116 48t-48 116z M145 678v78h398q36 0 55.5 -22t24.5 -56h-478zM164 -18q50 -29 102 -29h373q96 0 178 45q88 -45 180 -45h541v231h80v-309h-619q-108 0 -178 37q-70 -37 -182 -37h-293q-57 0 -106 29.5t-76 77.5zM399 184h148q52 0 87.5 41t35.5 103v82h-271v-226zM446 229v133h179v-47 q0 -30 -31 -30h-70v-56h-78zM967 594h290v61q0 61 -35.5 102.5t-86.5 41.5h-45q-51 0 -87 -41.5t-36 -102.5v-61zM1014 326v36h588v293q0 120 -74 224q24 -18 43 -37q108 -111 108 -267v-290h-587v-56h-2q-32 0 -54 28t-22 69zM1014 639v16q0 41 22 69t54 28h45 q29 0 49.5 -22t25.5 -56h-80q-35 0 -38 -35h-78z" />
<glyph unicode="&#xe7;" horiz-adv-x="1044" d="M102 328v327q0 137 96 232.5t232 95.5h326q68 0 116 -48.5t48 -115.5v-164h-297v144h-101q-51 0 -87 -41.5t-36 -102.5v-327q0 -62 35.5 -103t87.5 -41h336v-184h-428q-136 0 -232 96t-96 232zM207 27q99 -74 223 -74h473v231h80v-309h-190v-121q0 -68 -48.5 -116 t-115.5 -48h-164v170h158v115h-127q-92 0 -170.5 39.5t-118.5 112.5zM444 328v327q0 41 23 69t55 28h53v-82h-26q-25 0 -25 -29v-412h-2q-32 0 -55 29t-23 70zM623 530v78h342v211q0 58 -27 105q106 -47 106 -179v-215h-421z" />
<glyph unicode="&#xe8;" d="M102 328v327q0 137 96 232.5t232 95.5h244q136 0 231.5 -95.5t95.5 -232.5v-245h-602v-82q0 -62 35.5 -103t87.5 -41h418v-184h-510q-136 0 -232 96t-96 232zM207 27q99 -74 223 -74h555v231h80v-309h-567q-94 0 -170.5 38t-120.5 114zM317 1495h201l219 -348h-200z M399 594h306v61q0 61 -36 102.5t-87 41.5h-60q-51 0 -87 -41.5t-36 -102.5v-61zM444 328v34h603v293q0 123 -72 224q151 -103 151 -293v-301h-602v-56h-2q-32 0 -55 29t-23 70zM444 639v16q0 41 23 69t55 28h60q29 0 49.5 -22t25.5 -56h-96q-19 0 -27 -8t-8 -27h-82z" />
<glyph unicode="&#xe9;" d="M102 328v327q0 137 96 232.5t232 95.5h244q136 0 231.5 -95.5t95.5 -232.5v-245h-602v-82q0 -62 35.5 -103t87.5 -41h418v-184h-510q-136 0 -232 96t-96 232zM207 27q99 -74 223 -74h555v231h80v-309h-567q-94 0 -170.5 38t-120.5 114zM399 594h306v61q0 61 -36 102.5 t-87 41.5h-60q-51 0 -87 -41.5t-36 -102.5v-61zM444 328v34h603v293q0 123 -72 224q151 -103 151 -293v-301h-602v-56h-2q-32 0 -55 29t-23 70zM444 639v16q0 41 23 69t55 28h60q29 0 49.5 -22t25.5 -56h-96q-19 0 -27 -8t-8 -27h-82zM481 1147l219 348h201l-219 -348h-201z " />
<glyph unicode="&#xea;" d="M102 328v327q0 137 96 232.5t232 95.5h244q136 0 231.5 -95.5t95.5 -232.5v-245h-602v-82q0 -62 35.5 -103t87.5 -41h418v-184h-510q-136 0 -232 96t-96 232zM207 27q99 -74 223 -74h555v231h80v-309h-567q-94 0 -170.5 38t-120.5 114zM297 1147l221 348h176l217 -348 h-202l-103 166l-106 -166h-203zM399 594h306v61q0 61 -36 102.5t-87 41.5h-60q-51 0 -87 -41.5t-36 -102.5v-61zM444 328v34h603v293q0 123 -72 224q151 -103 151 -293v-301h-602v-56h-2q-32 0 -55 29t-23 70zM444 639v16q0 41 23 69t55 28h60q29 0 49.5 -22t25.5 -56h-96 q-19 0 -27 -8t-8 -27h-82z" />
<glyph unicode="&#xeb;" d="M102 328v327q0 137 96 232.5t232 95.5h244q136 0 231.5 -95.5t95.5 -232.5v-245h-602v-82q0 -62 35.5 -103t87.5 -41h418v-184h-510q-136 0 -232 96t-96 232zM207 27q99 -74 223 -74h555v231h80v-309h-567q-94 0 -170.5 38t-120.5 114zM362 1141v170h170v-170h-170z M399 594h306v61q0 61 -36 102.5t-87 41.5h-60q-51 0 -87 -41.5t-36 -102.5v-61zM444 328v34h603v293q0 123 -72 224q151 -103 151 -293v-301h-602v-56h-2q-32 0 -55 29t-23 70zM444 639v16q0 41 23 69t55 28h60q29 0 49.5 -22t25.5 -56h-96q-19 0 -27 -8t-8 -27h-82z M684 1141v170h170v-170h-170z" />
<glyph unicode="&#xec;" horiz-adv-x="575" d="M41 1495h201l219 -348h-201zM127 0v983h297v-983h-297zM127 -47h342v1030h80v-1108h-422v78z" />
<glyph unicode="&#xed;" horiz-adv-x="575" d="M127 0v983h297v-983h-297zM127 -47h342v1030h80v-1108h-422v78zM156 1147l219 348h200l-219 -348h-200z" />
<glyph unicode="&#xee;" horiz-adv-x="575" d="M4 1147l221 348h176l217 -348h-202l-103 166l-106 -166h-203zM127 0v983h297v-983h-297zM127 -47h342v1030h80v-1108h-422v78z" />
<glyph unicode="&#xef;" horiz-adv-x="575" d="M68 1141v170h170v-170h-170zM127 0v983h297v-983h-297zM127 -47h342v1030h80v-1108h-422v78zM389 1141v170h170v-170h-170z" />
<glyph unicode="&#xf0;" horiz-adv-x="1249" d="M102 328v327q0 137 95 232.5t231 95.5h256v143h-160v185h160v184h297v-184h164v-185h-164v-798q0 -136 -95.5 -232t-232.5 -96h-225q-136 0 -231 95.5t-95 232.5zM207 27q99 -74 221 -74h225q152 0 265.5 111t109.5 264v751h164v232h78v-310h-164v-673q0 -121 -60 -226.5 t-165 -168t-228 -58.5h-153q-93 0 -172 38t-121 114zM397 328q0 -62 35.5 -103t87.5 -41h41q52 0 87.5 41t35.5 103v471h-164q-51 0 -87 -41.5t-36 -102.5v-327zM444 328v327q0 41 22 69t54 28h119v-78h-84q-33 0 -33 -35v-410h-2q-32 0 -54 29t-22 70zM526 1028v51h113v-51 h-113zM1028 1356v139h78v-139h-78z" />
<glyph unicode="&#xf1;" horiz-adv-x="1146" d="M123 0v983h551q136 0 231.5 -95.5t95.5 -232.5v-655h-296v655q0 61 -36 102.5t-87 41.5h-162v-799h-297zM123 -47h342v799h117q28 0 48 -22t25 -56h-110v-799h-422v78zM246 1323v172h239q71 0 120.5 -50t49.5 -122v-6h246v-170h-246q-70 0 -120 49.5t-50 120.5v6h-239z M705 -47h342v702q0 123 -72 224q151 -103 151 -291v-713h-421v78z" />
<glyph unicode="&#xf2;" d="M102 328v327q0 137 96 232.5t232 95.5h244q136 0 231.5 -95.5t95.5 -232.5v-327q0 -137 -95.5 -232.5t-231.5 -95.5h-244q-136 0 -232 96t-96 232zM207 27q99 -74 223 -74h244q157 0 264 110q109 106 109 265v327q0 123 -72 224q80 -49 115.5 -118.5t35.5 -164.5v-268 q0 -188 -131 -322q-134 -131 -321 -131h-185q-92 0 -165.5 38.5t-116.5 113.5zM287 1495h200l220 -348h-201zM399 328q0 -62 35.5 -103t87.5 -41h60q52 0 87.5 41t35.5 103v327q0 61 -36 102.5t-87 41.5h-60q-51 0 -87 -41.5t-36 -102.5v-327zM444 328v327q0 41 23 69t55 28 h60q29 0 49.5 -22t25.5 -56h-102q-17 0 -24 -7t-7 -26v-412h-2q-32 0 -55 29t-23 70z" />
<glyph unicode="&#xf3;" d="M102 328v327q0 137 96 232.5t232 95.5h244q136 0 231.5 -95.5t95.5 -232.5v-327q0 -137 -95.5 -232.5t-231.5 -95.5h-244q-136 0 -232 96t-96 232zM207 27q99 -74 223 -74h244q157 0 264 110q109 106 109 265v327q0 123 -72 224q80 -49 115.5 -118.5t35.5 -164.5v-268 q0 -188 -131 -322q-134 -131 -321 -131h-185q-92 0 -165.5 38.5t-116.5 113.5zM399 328q0 -62 35.5 -103t87.5 -41h60q52 0 87.5 41t35.5 103v327q0 61 -36 102.5t-87 41.5h-60q-51 0 -87 -41.5t-36 -102.5v-327zM444 328v327q0 41 23 69t55 28h60q29 0 49.5 -22t25.5 -56 h-102q-17 0 -24 -7t-7 -26v-412h-2q-32 0 -55 29t-23 70zM461 1147l219 348h201l-219 -348h-201z" />
<glyph unicode="&#xf4;" d="M102 328v327q0 137 96 232.5t232 95.5h244q136 0 231.5 -95.5t95.5 -232.5v-327q0 -137 -95.5 -232.5t-231.5 -95.5h-244q-136 0 -232 96t-96 232zM207 27q99 -74 223 -74h244q157 0 264 110q109 106 109 265v327q0 123 -72 224q80 -49 115.5 -118.5t35.5 -164.5v-268 q0 -188 -131 -322q-134 -131 -321 -131h-185q-92 0 -165.5 38.5t-116.5 113.5zM287 1147l221 348h176l217 -348h-203l-102 166l-107 -166h-202zM399 328q0 -62 35.5 -103t87.5 -41h60q52 0 87.5 41t35.5 103v327q0 61 -36 102.5t-87 41.5h-60q-51 0 -87 -41.5t-36 -102.5 v-327zM444 328v327q0 41 23 69t55 28h60q29 0 49.5 -22t25.5 -56h-102q-17 0 -24 -7t-7 -26v-412h-2q-32 0 -55 29t-23 70z" />
<glyph unicode="&#xf5;" d="M102 328v327q0 137 96 232.5t232 95.5h244q136 0 231.5 -95.5t95.5 -232.5v-327q0 -137 -95.5 -232.5t-231.5 -95.5h-244q-136 0 -232 96t-96 232zM207 27q99 -74 223 -74h244q157 0 264 110q109 106 109 265v327q0 123 -72 224q80 -49 115.5 -118.5t35.5 -164.5v-268 q0 -188 -131 -322q-134 -131 -321 -131h-185q-92 0 -165.5 38.5t-116.5 113.5zM266 1323v172h240q71 0 120.5 -50t49.5 -122v-6h246v-170h-246q-70 0 -120 49.5t-50 120.5v6h-240zM266 1323v172h240q71 0 120.5 -50t49.5 -122v-6h246v-170h-246q-70 0 -120 49.5t-50 120.5v6 h-240zM266 1323v172h240q71 0 120.5 -50t49.5 -122v-6h246v-170h-246q-70 0 -120 49.5t-50 120.5v6h-240zM399 328q0 -62 35.5 -103t87.5 -41h60q52 0 87.5 41t35.5 103v327q0 61 -36 102.5t-87 41.5h-60q-51 0 -87 -41.5t-36 -102.5v-327zM444 328v327q0 41 23 69t55 28h60 q29 0 49.5 -22t25.5 -56h-102q-17 0 -24 -7t-7 -26v-412h-2q-32 0 -55 29t-23 70z" />
<glyph unicode="&#xf6;" d="M102 328v327q0 137 96 232.5t232 95.5h244q136 0 231.5 -95.5t95.5 -232.5v-327q0 -137 -95.5 -232.5t-231.5 -95.5h-244q-136 0 -232 96t-96 232zM207 27q99 -74 223 -74h244q157 0 264 110q109 106 109 265v327q0 123 -72 224q80 -49 115.5 -118.5t35.5 -164.5v-268 q0 -188 -131 -322q-134 -131 -321 -131h-185q-92 0 -165.5 38.5t-116.5 113.5zM348 1141v170h170v-170h-170zM399 328q0 -62 35.5 -103t87.5 -41h60q52 0 87.5 41t35.5 103v327q0 61 -36 102.5t-87 41.5h-60q-51 0 -87 -41.5t-36 -102.5v-327zM444 328v327q0 41 23 69t55 28 h60q29 0 49.5 -22t25.5 -56h-102q-17 0 -24 -7t-7 -26v-412h-2q-32 0 -55 29t-23 70zM670 1141v170h170v-170h-170z" />
<glyph unicode="&#xf7;" horiz-adv-x="1085" d="M123 258v80h201v-80h-201zM123 385v262h817v-262h-817zM369 0h372v336h246v311h78v-389h-246v-338h-450v80zM369 47v291h325v-291h-325zM369 696v287h325v-287h-325zM741 694v289h78v-289h-78z" />
<glyph unicode="&#xf8;" d="M102 328v327q0 137 95 232.5t231 95.5h246q64 0 125 -25l53 70l137 -104l-55 -72q65 -87 65 -197v-327q0 -137 -94.5 -232.5t-230.5 -95.5h-246q-64 0 -125 25l-53 -70l-139 106l55 70q-64 86 -64 197zM283 -80l36 49q56 -16 109 -16h246q98 -3 185 48.5t137.5 139.5 t47.5 187v327q0 106 -53 195l37 47l62 -47l-9 -10q43 -85 43 -185v-327q4 -120 -57.5 -226.5t-167 -168t-225.5 -58.5h-246q-43 0 -76 8l-8 -10zM397 434l258 336q-32 29 -73 29h-62q-51 0 -87 -41.5t-36 -102.5v-221zM444 213q32 -29 76 -29h62q52 0 87.5 41t35.5 103v221z " />
<glyph unicode="&#xf9;" d="M102 328v655h297v-655q0 -61 36 -102.5t87 -41.5h39q51 0 87 41.5t36 102.5v655h297v-655q0 -136 -95.5 -232t-232.5 -96h-223q-136 0 -232 96t-96 232zM209 27q99 -74 221 -74h223q154 0 264.5 110.5t110.5 264.5v655h78v-655q0 -121 -60.5 -226.5t-165.5 -168 t-227 -58.5h-143q-154 0 -266 109q-26 30 -35 43zM266 1495h201l219 -348h-201zM446 328v655h78v-754h-2q-32 0 -54 29t-22 70z" />
<glyph unicode="&#xfa;" d="M102 328v655h297v-655q0 -61 36 -102.5t87 -41.5h39q51 0 87 41.5t36 102.5v655h297v-655q0 -136 -95.5 -232t-232.5 -96h-223q-136 0 -232 96t-96 232zM209 27q99 -74 221 -74h223q154 0 264.5 110.5t110.5 264.5v655h78v-655q0 -121 -60.5 -226.5t-165.5 -168 t-227 -58.5h-143q-154 0 -266 109q-26 30 -35 43zM446 328v655h78v-754h-2q-32 0 -54 29t-22 70zM461 1147l219 348h201l-219 -348h-201z" />
<glyph unicode="&#xfb;" d="M102 328v655h297v-655q0 -61 36 -102.5t87 -41.5h39q51 0 87 41.5t36 102.5v655h297v-655q0 -136 -95.5 -232t-232.5 -96h-223q-136 0 -232 96t-96 232zM209 27q99 -74 221 -74h223q154 0 264.5 110.5t110.5 264.5v655h78v-655q0 -121 -60.5 -226.5t-165.5 -168 t-227 -58.5h-143q-154 0 -266 109q-26 30 -35 43zM274 1147l222 348h176l217 -348h-203l-102 166l-107 -166h-203zM446 328v655h78v-754h-2q-32 0 -54 29t-22 70z" />
<glyph unicode="&#xfc;" d="M102 328v655h297v-655q0 -61 36 -102.5t87 -41.5h39q51 0 87 41.5t36 102.5v655h297v-655q0 -136 -95.5 -232t-232.5 -96h-223q-136 0 -232 96t-96 232zM209 27q99 -74 221 -74h223q154 0 264.5 110.5t110.5 264.5v655h78v-655q0 -121 -60.5 -226.5t-165.5 -168 t-227 -58.5h-143q-154 0 -266 109q-26 30 -35 43zM338 1141v170h170v-170h-170zM446 328v655h78v-754h-2q-32 0 -54 29t-22 70zM659 1141v170h170v-170h-170z" />
<glyph unicode="&#xfd;" horiz-adv-x="1146" d="M123 328v655h297v-655q0 -61 36 -102.5t87 -41.5h162v799h296v-1229q0 -68 -48 -116t-115 -48h-256v185h123v225h-254q-137 0 -232.5 96t-95.5 232zM227 27q99 -74 224 -74h206v-78h-129q-155 0 -264 109q-6 7 -18.5 21.5t-18.5 21.5zM461 1147l219 348h201l-219 -348 h-201zM465 328v655h80v-754h-2q-32 0 -55 29t-23 70zM582 -457h256q86 0 147.5 61.5t61.5 149.5v1229h79v-1229q0 -120 -84 -204.5t-204 -84.5h-256v78z" />
<glyph unicode="&#xfe;" d="M123 -410v1905h295v-512h256q136 0 231.5 -95.5t95.5 -232.5v-327q0 -137 -95.5 -232.5t-231.5 -95.5h-256v-410h-295zM123 -457h340v410h211q154 0 263.5 110.5t109.5 264.5v327q0 123 -72 224q7 -6 21.5 -18.5t21.5 -18.5q108 -111 108 -267v-245q0 -188 -132.5 -321.5 t-319.5 -133.5h-131v-410h-420v78zM418 184h164q51 0 87 41.5t36 102.5v327q0 62 -35.5 103t-87.5 41h-164v-615zM463 229v523h119q29 0 49.5 -22t25.5 -56h-114v-445h-80zM463 1028v467h80v-467h-80z" />
<glyph unicode="&#xff;" horiz-adv-x="1146" d="M123 328v655h297v-655q0 -61 36 -102.5t87 -41.5h162v799h296v-1229q0 -68 -48 -116t-115 -48h-256v185h123v225h-254q-137 0 -232.5 96t-95.5 232zM227 27q99 -74 224 -74h206v-78h-129q-155 0 -264 109q-6 7 -18.5 21.5t-18.5 21.5zM358 1141v170h170v-170h-170z M465 328v655h80v-754h-2q-32 0 -55 29t-23 70zM582 -457h256q86 0 147.5 61.5t61.5 149.5v1229h79v-1229q0 -120 -84 -204.5t-204 -84.5h-256v78zM680 1141v170h170v-170h-170z" />
<glyph unicode="&#x152;" horiz-adv-x="1720" d="M123 328v655q0 135 96.5 231.5t231.5 96.5h1124v-185h-455v-348h443v-184h-443v-260q0 -64 38 -107t93 -43h324v-184h-447q-91 0 -167 45q-76 -45 -166 -45h-344q-135 0 -231.5 96t-96.5 232zM227 27q104 -74 224 -74h344q86 0 166 39q80 -39 167 -39h492v231h80v-309 h-570q-91 0 -167 33q-76 -33 -168 -33h-277q-92 0 -169 39t-122 113zM444 334q0 -64 37.5 -107t91.5 -43h99q55 0 93 43t38 107v792h-230q-54 0 -91.5 -43.5t-37.5 -107.5v-641zM489 334v641q0 44 24.5 74t59.5 30h183v-78h-156q-18 0 -24.5 -8t-6.5 -28v-734q-34 2 -57 31 t-23 72zM1165 334v213h443v231h80v-309h-443v-238q-34 1 -57 31.5t-23 71.5zM1165 823v256h455v232h80v-310h-455v-178h-80z" />
<glyph unicode="&#x153;" horiz-adv-x="1710" d="M102 328v327q0 137 96 232.5t232 95.5h246q96 0 178 -53q82 53 178 53h225q137 0 232.5 -95.5t95.5 -232.5v-245h-584v-82q0 -62 35.5 -103t87.5 -41h408v-184h-500q-99 0 -178 51q-79 -51 -178 -51h-246q-136 0 -232 96t-96 232zM207 27q99 -74 223 -74h246q93 0 178 45 q82 -45 178 -45h545v231h80v-309h-625q-96 0 -180 35q-84 -35 -176 -35h-168q-94 0 -172 38t-129 114zM399 328q0 -62 35.5 -103t87.5 -41h62q52 0 87.5 41t35.5 103v327q0 61 -36 102.5t-87 41.5h-62q-51 0 -87 -41.5t-36 -102.5v-327zM444 328v327q0 41 23 69t55 28h62 q27 0 48 -22t27 -56h-92q-24 0 -33.5 -10t-9.5 -31v-404h-2q-33 0 -55.5 28.5t-22.5 70.5zM1001 594h287v61q0 61 -36 102.5t-87 41.5h-41q-51 0 -87 -41.5t-36 -102.5v-61zM1047 328v34h583v293q0 124 -71 224q151 -105 151 -304v-290h-584v-56h-2q-33 0 -55 28.5t-22 70.5 zM1047 639v16q0 41 22.5 69t54.5 28h41q28 0 49 -22t27 -56h-72q-40 0 -43 -35h-79z" />
<glyph unicode="&#x178;" horiz-adv-x="1187" d="M102 840v471h322v-465q0 -64 37.5 -107t91.5 -43h59q54 0 91.5 43t37.5 107v465h322v-471q0 -133 -94 -229t-228 -99v-512h-319v512q-132 3 -226 99t-94 229zM209 539q71 -54 166 -70v-57q-109 30 -166 127zM377 1468v170h170v-170h-170zM422 -47h364v516 q136 15 229 124.5t93 246.5v471h80v-471q0 -146 -91 -269t-231 -161v-535h-444v78zM469 846v465h80v-568q-34 2 -57 31t-23 72zM698 1468v170h170v-170h-170z" />
<glyph unicode="&#x2c6;" horiz-adv-x="942" d="M164 1147l221 348h176l217 -348h-203l-102 166l-106 -166h-203z" />
<glyph unicode="&#x2dc;" horiz-adv-x="942" d="M143 1323v172h240q71 0 120.5 -50t49.5 -122v-6h246v-170h-246q-70 0 -120 49.5t-50 120.5v6h-240z" />
<glyph unicode="&#x2000;" horiz-adv-x="911" />
<glyph unicode="&#x2001;" horiz-adv-x="1823" />
<glyph unicode="&#x2002;" horiz-adv-x="911" />
<glyph unicode="&#x2003;" horiz-adv-x="1823" />
<glyph unicode="&#x2004;" horiz-adv-x="607" />
<glyph unicode="&#x2005;" horiz-adv-x="455" />
<glyph unicode="&#x2006;" horiz-adv-x="303" />
<glyph unicode="&#x2007;" horiz-adv-x="303" />
<glyph unicode="&#x2008;" horiz-adv-x="227" />
<glyph unicode="&#x2009;" horiz-adv-x="364" />
<glyph unicode="&#x200a;" horiz-adv-x="101" />
<glyph unicode="&#x2010;" horiz-adv-x="716" d="M102 346v78h535v252h80v-330h-615zM102 471v205h490v-205h-490z" />
<glyph unicode="&#x2011;" horiz-adv-x="716" d="M102 346v78h535v252h80v-330h-615zM102 471v205h490v-205h-490z" />
<glyph unicode="&#x2012;" horiz-adv-x="716" d="M102 346v78h535v252h80v-330h-615zM102 471v205h490v-205h-490z" />
<glyph unicode="&#x2013;" horiz-adv-x="1146" d="M102 346v78h945v252h79v-330h-1024zM102 471v205h899v-205h-899z" />
<glyph unicode="&#x2014;" horiz-adv-x="1658" d="M102 346v78h1477v252h80v-330h-1557zM102 471v205h1432v-205h-1432z" />
<glyph unicode="&#x2018;" horiz-adv-x="614" d="M41 1495h281l163 -512h-282zM223 936h326l-178 559h82l202 -637h-407z" />
<glyph unicode="&#x2019;" horiz-adv-x="614" d="M82 858l24 78h330l176 559h84l-200 -637h-414zM121 983l164 512h280l-162 -512h-282z" />
<glyph unicode="&#x201a;" horiz-adv-x="614" d="M-39 -535l25 78h354l231 744h84l-256 -822h-438zM0 -410l219 697h305l-217 -697h-307z" />
<glyph unicode="&#x201c;" horiz-adv-x="1085" d="M41 1495h285l163 -512h-286zM223 936h330l-178 559h82l202 -637h-411zM506 1495h285l163 -512h-286zM688 936h330l-178 559h82l204 -637h-413z" />
<glyph unicode="&#x201d;" horiz-adv-x="1085" d="M82 858l24 78h334l176 559h84l-200 -637h-418zM121 983l164 512h284l-161 -512h-287zM549 858l24 78h334l176 559h84l-200 -637h-418zM588 983l166 512h282l-162 -512h-286z" />
<glyph unicode="&#x201e;" horiz-adv-x="1097" d="M-39 -535l25 78h354l231 744h84l-256 -822h-438zM0 -410l219 697h305l-217 -697h-307zM444 -535l25 78h354l232 744h84l-256 -822h-439zM483 -410l219 697h306l-217 -697h-308z" />
<glyph unicode="&#x2022;" horiz-adv-x="614" d="M143 367v77h371v375h80v-452h-451zM143 492v327h326v-327h-326z" />
<glyph unicode="&#x2026;" horiz-adv-x="1617" d="M143 0v287h326v-287h-326zM143 -47h371v334h80v-412h-451v78zM645 0v287h326v-287h-326zM645 -47h371v334h80v-412h-451v78zM1147 0v287h326v-287h-326zM1147 -47h371v334h79v-412h-450v78z" />
<glyph unicode="&#x202f;" horiz-adv-x="364" />
<glyph unicode="&#x2039;" horiz-adv-x="757" d="M0 586l496 495l170 -182l-306 -313l308 -310l-174 -184zM424 586l278 284l58 -55l-279 -285zM496 25l235 251l57 -55l-235 -254z" />
<glyph unicode="&#x203a;" horiz-adv-x="778" d="M82 276l307 310l-305 313l170 182l496 -495l-494 -494zM256 27l532 534l58 -57l-533 -533z" />
<glyph unicode="&#x205f;" horiz-adv-x="455" />
<glyph unicode="&#x20ac;" d="M82 449v77h217q11 -31 41 -77h-258zM82 573v185h242v123h-242v184h252q27 107 115 176.5t202 69.5h350v-185h-258q-51 0 -86.5 -41t-35.5 -102v-74h380v-184h-380v-70q0 -62 35 -102.5t87 -40.5h258v-184h-350q-114 0 -202 69t-115 176h-252zM428 354q103 -73 223 -73 h396v231h79v-309h-417q-90 0 -164.5 39t-116.5 112zM666 655v23h381v231h79v-309h-381v-43h-2q-32 0 -54.5 28.5t-22.5 69.5zM666 954v29q0 41 22.5 68.5t54.5 27.5h304v232h79v-310h-342q-22 0 -30.5 -10t-8.5 -37h-79z" />
<glyph unicode="&#x2122;" horiz-adv-x="1540" d="M61 1182v129h459v-129h-133v-445h-192v445h-134zM618 737v574h623q91 0 154 -63t63 -154v-357h-194v391q0 33 -17.5 53.5t-48.5 20.5h-63v-465h-193v465h-129v-465h-195z" />
<glyph unicode="&#xe000;" horiz-adv-x="983" d="M0 0v983h983v-983h-983z" />
</font>
</defs>
</svg>
